<?xml version="1.0" encoding="UTF-8"?>
<svg width="65px" height="64px" viewBox="0 0 65 64" version="1.1" xmlns="http://www.w3.org/2000/svg" xmlns:xlink="http://www.w3.org/1999/xlink">
    <title>Send Invoices</title>
    <defs>
        <linearGradient x1="36.7224809%" y1="37.0510142%" x2="3.33035087%" y2="85.5225918%" id="linearGradient-1">
            <stop stop-color="#31383B" offset="0%"></stop>
            <stop stop-color="#0E171E" offset="100%"></stop>
        </linearGradient>
    </defs>
    <g id="functions-icons" stroke="none" stroke-width="1" fill="none" fill-rule="evenodd">
        <g id="Send-Invoices">
            <path d="M52.7634511,0 C55.9684885,0 61.4087089,2.93353705 61.4087089,10.3218922 L61.4096679,37.4618808 C58.7410672,34.2588916 54.5123267,32.4840336 49.3880519,32.4840336 C40.4772392,32.4840336 33.2535982,39.7076746 33.2535982,48.6184874 C33.2535982,49.8829808 33.3609966,50.9172487 33.5707758,51.7611682 L9.62329842,51.7606315 C4.08796332,51.5821177 0,47.6536867 0,41.4387394 L0,10.3218922 C0,3.91138273 4.73407,0 9.62329842,0 L52.7634511,0 Z" id="Combined-Shape" fill="url(#linearGradient-1)" fill-rule="nonzero"></path>
            <circle id="Oval" fill="#6772E4" cx="49.8339713" cy="49.2086661" r="14.6676853"></circle>
            <path d="M54.8240682,46.0044313 C53.9672404,45.564166 53.0982091,45.244645 52.1876976,45.0448124 C51.2502562,44.8389367 50.3057156,44.6899716 49.3443952,44.8467986 C48.7194342,44.948651 48.3958063,45.3003236 48.4003827,45.8276563 C48.4033749,46.1689442 48.5805606,46.4138946 48.8386532,46.6072147 C49.2525754,46.9173484 49.7345557,47.088491 50.2155386,47.2590469 C51.2789462,47.6360065 52.3630645,47.9615706 53.3501413,48.526922 C55.285455,49.635154 55.9693214,51.3213517 55.7510662,53.3443781 C55.4895706,55.7697687 53.9890659,57.1318104 51.7607504,57.8059374 C50.3062436,58.2459681 48.8165344,58.2538887 47.3203713,58.06315 C46.1581622,57.9150064 45.0375507,57.6108572 43.9510269,57.173584 C43.7758947,57.1031204 43.7025562,57.0162877 43.7039643,56.8159857 C43.713821,55.4668516 43.7124716,54.1175414 43.7057831,52.7683486 C43.7046684,52.5466318 43.7228563,52.4767549 43.9627024,52.6005502 C45.25739,53.2688102 46.6152074,53.7553081 48.0659007,53.9530873 C48.6821783,54.0371625 49.3012722,54.0736557 49.9126215,53.9223438 C50.3710161,53.8088745 50.7373564,53.5842242 50.8351019,53.0690363 C50.9310286,52.563353 50.7096638,52.2012957 50.3199139,51.9213775 C49.681576,51.4629242 48.9330545,51.2433195 48.2086466,50.9748421 C47.2087208,50.604219 46.2074456,50.2393455 45.3276189,49.6150299 C44.1546731,48.7827852 43.5393342,47.6575387 43.5151031,46.2113631 C43.4681079,43.4080742 45.1308372,41.3728442 47.9711474,40.8035618 C50.2556694,40.3456365 52.4818728,40.6157567 54.6579126,41.4059932 C54.7774836,41.4493509 54.8542836,41.4962288 54.8534622,41.6513543 C54.8464804,43.0643809 54.8489446,44.4774661 54.8477712,45.8904927 C54.8477712,45.9157798 54.8376211,45.9411256 54.8240682,46.0044313" id="Fill-1" fill="#FFFFFF"></path>
            <path d="M12.0037918,8.85110174 L28.1800955,8.85101303 C28.4155421,8.85096585 28.6490431,8.85091438 28.8802991,8.85085831 L30.8929083,8.85022159 C31.1080008,8.85013527 31.3199504,8.85004346 31.5284577,8.84994587 L32.7358004,8.84928849 C32.9293415,8.84916656 33.1188417,8.84903825 33.3040017,8.84890325 L34.3604846,8.84801076 C34.5270865,8.84784786 34.6887495,8.84767768 34.8451743,8.84749993 C35.6472878,8.84662676 36.2888475,9.13117019 36.6800265,9.83810837 C36.8310845,10.1113006 36.9272421,10.4470335 36.939903,10.7586451 C36.9749388,11.6213345 36.9531096,12.486316 36.9532188,13.3503152 L36.9532188,19.8171023 L36.9532188,19.8171023 C36.9531096,22.809447 36.9499444,25.8017918 36.9552926,28.7941366 C36.9567115,29.6044359 36.6090817,30.211833 35.919716,30.6103248 C35.7081912,30.7326774 35.4449312,30.7709876 35.2009901,30.8291624 C35.0885698,30.8560123 34.9656714,30.8405136 34.8474664,30.8405136 L17.9319482,30.8408445 C17.7001711,30.8408907 17.4706388,30.8409406 17.2436507,30.8409944 L14.6610685,30.8418424 C14.4592226,30.8419313 14.2611182,30.842025 14.0670545,30.8421238 L12.9535557,30.8427798 C12.6001487,30.8430201 12.2652992,30.8432828 11.9514018,30.8435697 C11.1604212,30.8442245 10.5323956,30.5579348 10.1366324,29.8640941 C10.0021647,29.628448 9.94311671,29.3469607 9.8694432,29.0809721 C9.83888234,28.9705164 9.85798288,28.8458717 9.85798288,28.7276667 C9.85765544,22.7975501 9.85983836,16.8673244 9.85503594,10.9372079 C9.85438107,10.1446993 10.150494,9.52191262 10.838659,9.12298425 C11.0654643,8.9914634 11.3380017,8.93186973 11.5961318,8.8643084 C11.7243783,8.83069145 11.8674686,8.85110174 12.0037918,8.85110174 Z M34.9223405,12.6594113 C33.8148149,12.6609632 32.4506227,12.6622004 30.9324305,12.6631298 L29.5958031,12.6638514 C29.3675444,12.6639591 29.1367414,12.6640606 28.9036935,12.6641559 L26.7537321,12.6648462 C26.5099087,12.6649044 26.2647384,12.6649564 26.0185205,12.6650023 L20.7966105,12.6650711 C20.5503925,12.6650321 20.3052222,12.6649871 20.0613988,12.6649361 L17.2193278,12.6640394 C16.991069,12.663941 16.7653545,12.6638367 16.5424835,12.6637266 L15.2417745,12.6629955 C13.9799771,12.6621943 12.842098,12.6611834 11.8927904,12.6599672 C11.6271292,12.6596398 11.536429,12.7162865 11.5370535,13.0030128 L11.5439426,19.8368713 L11.5439426,19.8368713 L11.5438509,26.6708117 C11.5438509,27.0252085 11.5448332,27.0259725 11.9025044,27.0262181 L34.904768,27.0262181 C35.2662593,27.0262181 35.2672416,27.0253177 35.2672416,26.6749592 C35.2674599,22.1189899 35.2648404,17.5630206 35.2735777,13.0070512 C35.2741178,12.7279651 35.1952053,12.659094 34.9223405,12.6594113 Z M17.6859972,22.6009674 L20.3720239,22.6059472 L20.3720239,22.6059472 L28.3210673,22.6053332 C28.697839,22.6054424 28.7008951,22.6094808 28.7018774,22.9861434 L28.6975682,23.6409139 C28.6980816,23.7499587 28.700313,23.8589106 28.7059158,23.9676927 C28.7191225,24.2228759 28.6179442,24.2958945 28.3722567,24.2950367 C26.4088306,24.2877086 24.4454045,24.290983 22.4820876,24.2910921 C20.8912857,24.2910921 19.3005929,24.2915287 17.7099001,24.2905464 C17.3680551,24.2904372 17.358232,24.2794135 17.3568131,23.937241 C17.355285,23.6008533 17.3692557,23.2638106 17.3523381,22.9284052 C17.339568,22.673222 17.4400914,22.5999851 17.6859972,22.6009674 Z M25.8651529,15.2822854 C26.0116267,15.4305056 26.1504604,15.5864751 26.2880934,15.7429904 C26.3272768,15.7874128 26.3504157,15.845915 26.3899265,15.9135855 C26.3346987,15.9857309 26.2926775,16.0544929 26.2375588,16.1105939 C24.833069,17.5423702 23.4256323,18.9710904 22.0239803,20.4055953 C21.8592791,20.5740075 21.7442393,20.5793556 21.5758271,20.4052679 C20.9273911,19.7345661 20.269132,19.0733601 19.607926,18.4152101 C19.4534845,18.2615327 19.4328559,18.1367789 19.5988669,17.9813551 C19.7837601,17.8081405 19.9565381,17.6220467 20.1336819,17.440537 C20.2695686,17.3012668 20.3956322,17.3104351 20.5300999,17.4491595 C20.8514256,17.7807449 21.1782085,18.1070912 21.5023719,18.436057 C21.7931366,18.7311876 21.8167121,18.7276949 22.0986361,18.4372576 C23.1226432,17.3820348 24.1482875,16.32834 25.1761147,15.2768281 C25.508464,14.9368386 25.5258182,14.9389123 25.8651529,15.2822854 Z" id="Combined-Shape" fill="#CDCFD7"></path>
        </g>
    </g>
</svg>