<?xml version="1.0" encoding="UTF-8"?>
<svg width="66px" height="66px" viewBox="0 0 66 66" version="1.1" xmlns="http://www.w3.org/2000/svg" xmlns:xlink="http://www.w3.org/1999/xlink">
    <title>addNewUserToBigQuery</title>
    <defs>
        <polygon id="path-1" points="1.85071111e-06 0.0271384615 19.9868 0.0271384615 19.9868 17.7846116 1.85071111e-06 17.7846116"></polygon>
    </defs>
    <g id="functions-icons" stroke="none" stroke-width="1" fill="none" fill-rule="evenodd">
        <g id="addNewUserToBigQuery">
            <path d="M53.958873,0 C57.2365246,0 62.8,3 62.8,10.5557475 L62.800257,38.309758 C60.071155,35.0347488 55.7469084,33.22 50.507,33.22 C41.3943016,33.22 34.007,40.6073016 34.007,49.72 C34.007,51.0130647 34.1168185,52.070716 34.3313252,52.9337273 L9.84132628,52.9333333 C4.18058124,52.7507751 1.13686838e-13,48.7333406 1.13686838e-13,42.3775858 L1.13686838e-13,10.5557475 C1.13686838e-13,4 4.84132628,0 9.84132628,0 L53.958873,0 Z" id="Combined-Shape" fill="#699DF6" fill-rule="nonzero"></path>
            <g id="Group-6" opacity="0.200833275" transform="translate(33.197974, 14.876632)" fill="#000000" fill-rule="nonzero">
                <path d="M22.7488779,10.4026062 C23.461293,10.4026062 24.0385505,10.9800356 24.0385505,11.6922788 C24.0385505,12.4045219 23.461293,12.9819513 22.7488779,12.9819513 L22.7488779,12.9819513 L12.7589884,12.9819513 C12.0465733,12.9819513 11.4693159,12.4045219 11.4693159,11.6922788 C11.4693159,10.9800356 12.0465733,10.4026062 12.7589884,10.4026062 L12.7589884,10.4026062 Z M22.7488779,5.06927288 C23.461293,5.06927288 24.0385505,5.64670227 24.0385505,6.35894542 C24.0385505,7.07118858 23.461293,7.64861797 22.7488779,7.64861797 L22.7488779,7.64861797 L2.09232175,7.64861797 C1.37990663,7.64861797 0.802649202,7.07118858 0.802649202,6.35894542 C0.802649202,5.64670227 1.37990663,5.06927288 2.09232175,5.06927288 L2.09232175,5.06927288 Z M22.7488779,0 C23.461293,0 24.0385505,0.577429387 24.0385505,1.28967254 C24.0385505,2.0019157 23.461293,2.57934509 22.7488779,2.57934509 L22.7488779,2.57934509 L2.09232175,2.57934509 C1.37990663,2.57934509 0.802649202,2.0019157 0.802649202,1.28967254 C0.802649202,0.577429387 1.37990663,0 2.09232175,0 L2.09232175,0 Z" id="Combined-Shape"></path>
            </g>
            <g id="Group-4" transform="translate(6.180581, 10.168000)" fill-rule="nonzero">
                <rect id="Rectangle" fill="#F9C38A" x="10.416888" y="18.9577252" width="5.39159812" height="4.36803393"></rect>
                <g id="Group" transform="translate(1.549496, 4.805893)" fill="#FFD39F">
                    <circle id="Oval" cx="20.4351935" cy="7.13187982" r="2.32122353"></circle>
                    <circle id="Oval" cx="2.36979434" cy="7.13187982" r="2.32122353"></circle>
                    <path d="M19.2340398,7.81600481 C19.2340398,7.86091889 19.2340398,7.90503804 19.2324499,7.94923668 C19.1615413,12.1772023 15.7122985,15.5823259 11.4677187,15.5823259 C7.17830429,15.5823259 3.7014771,12.1055782 3.7014771,7.8160843 C3.7014771,7.54334054 3.71562703,7.27377653 3.74321143,7.00818722 C4.14759719,3.09787949 7.45088906,0.0498427108 11.4677187,0.0498427108 C15.7572921,0.0498427108 19.2340398,3.5265904 19.2340398,7.81600481 Z" id="Path"></path>
                </g>
                <path d="M20.7835359,12.6218979 C20.7835359,12.666812 20.7835359,12.7109311 20.781946,12.7551297 L20.1087912,12.6605319 C18.0082429,12.3649734 16.3671696,11.469633 15.2849389,10.6884459 C15.1603719,11.4057198 15.0815934,12.2065419 15.0571092,12.7953537 L15.0353279,13.3049099 C15.0138645,13.8073912 14.5291899,14.1583571 14.0450717,14.0220249 L13.5547529,13.8839439 C11.4588948,13.2927474 9.83046106,11.6209895 8.83654812,10.3299281 L7.59071884,12.3982019 C7.36853323,12.7671333 6.89689558,12.8982984 6.51611953,12.6970992 L6.20553664,12.5330236 C5.87523925,12.3580574 5.56704118,12.0987481 5.29278703,11.8141598 C5.69717279,7.90385205 9.00046466,4.85581527 13.0172943,4.85581527 C17.3067882,4.85581527 20.7835359,8.33248347 20.7835359,12.6218979 Z" id="Path" fill="#F9C38A"></path>
                <path d="M20.14353,10.2644251 L20.2735822,11.4901424 C16.7644804,10.9959285 14.6867469,8.60681711 14.6867469,8.60681711 C13.9986472,9.80177027 13.87567,12.74567 13.87567,12.74567 C10.8001283,11.8786294 8.78543351,8.12436829 8.78543351,8.12436829 L6.75889407,11.4875986 C5.92023283,11.0438633 5.12887049,9.57457654 5.12887049,9.57457654 L3.74472172,10.5614145 C3.39629971,9.05985317 3.38532954,7.45749348 3.7975057,5.9669818 C4.7197151,2.63284627 7.75900754,-0.143241688 13.8755905,0.00572998645 C18.3510208,0.115272659 20.5667559,3.06791669 21.6631365,5.87158905 C22.6712789,8.45069098 22.7311378,10.904272 22.7311378,10.904272 L20.14353,10.2644251 Z" id="Path" fill="#ADACB2"></path>
                <path d="M20.14353,10.2644251 L20.2735822,11.4901424 C16.7644804,10.9959285 14.6867469,8.60681711 14.6867469,8.60681711 C13.9986472,9.80177027 13.87567,12.74567 13.87567,12.74567 C10.8001283,11.8786294 8.78543351,8.12436829 8.78543351,8.12436829 L6.75889407,11.4875986 C5.92023283,11.0438633 5.12887049,9.57457654 5.12887049,9.57457654 L3.74472172,10.5614145 C3.60520982,9.96075818 3.5200718,9.34515698 3.49407727,8.72725045 L4.86836879,7.92889265 C5.23849266,7.71394099 5.71219714,7.86219722 5.89582818,8.24877633 C6.08947546,8.65634185 6.34671791,9.14395778 6.59887274,9.45875384 L8.26156834,6.44140173 C8.55633193,5.9064869 9.33577017,5.94893667 9.57472901,6.51103844 C10.1366718,7.83286395 11.1696163,9.71130614 12.7960626,10.7425018 C12.7960626,10.7425018 12.9512348,8.71850612 13.9039699,7.18737302 C14.165028,6.76780392 14.7602788,6.72137945 15.079765,7.09826029 C15.7289126,7.86410507 17.0043137,9.0436364 19.0641611,9.65772722 L19.0460365,9.47210883 C18.9975452,8.97630502 19.4486734,8.57843777 19.9345404,8.68861639 L22.2709473,9.21836412 C22.2709473,9.21836412 22.2433629,8.08962943 21.9107602,6.55809886 C22.6816131,8.86994211 22.7312968,10.904272 22.7312968,10.904272 L20.14353,10.2644251 Z" id="Path" fill="#8A8791"></path>
                <path d="M25.228202,31.2568712 C25.8706721,31.2568712 26.2768068,30.5721103 25.9748092,30.0050799 C23.512007,25.3809164 18.6430021,22.2327967 13.0382807,22.2327967 C7.43355928,22.2327967 2.56455444,25.3809164 0.101752165,30.0050799 C-0.200245376,30.5721103 0.205889248,31.2568712 0.848359406,31.2568712 L25.228202,31.2568712 Z" id="Path" fill-opacity="0.5" fill="#C4E3FF"></path>
                <path d="M25.583858,31.179921 C23.0189854,26.9338308 18.3599241,24.0954991 13.0386782,24.0954991 C7.71671676,24.0954991 3.05757596,26.9339103 0.492703444,31.179921 C0.0709880039,30.9860353 -0.139432499,30.4578774 0.101752165,30.0046824 C2.56495191,25.3810754 7.43371827,22.2328762 13.0386782,22.2328762 C18.6428431,22.2328762 23.5116095,25.3809959 25.9748092,30.0046824 C26.2159144,30.4578774 26.0054144,30.9860353 25.583858,31.179921 Z" id="Path" fill="#B5DCFF"></path>
                <path d="M9.47734891,11.8683747 C8.56523525,11.8598688 7.91680305,12.5486839 7.84589444,12.627224 C7.62513972,12.8715884 7.64278738,13.2502181 7.8871518,13.4709728 C8.0016231,13.5743945 8.14487121,13.6255091 8.28756286,13.6255091 C8.44941255,13.6255091 8.61046731,13.5596881 8.7277209,13.4298744 C8.82510099,13.3254194 9.15015178,13.0567298 9.47162534,13.060784 C9.67759419,13.0642022 9.87839592,13.1812968 10.0854777,13.4187453 C10.3019397,13.6669254 10.6785821,13.692602 10.9266827,13.4762194 C11.1748629,13.2597574 11.2005394,12.8831945 10.9841569,12.6350144 C10.4367615,12.0074891 9.86257662,11.8717134 9.47734891,11.8683747 Z" id="Path" fill="#000000"></path>
                <path d="M15.7401213,13.6254296 C15.901971,13.6254296 16.0630257,13.5596086 16.1802793,13.429795 C16.2776594,13.3253399 16.5995305,13.0566503 16.9241838,13.0607045 C17.1301526,13.0641228 17.3309544,13.1812174 17.5380361,13.4186658 C17.7544982,13.6668459 18.131061,13.6925225 18.3792412,13.4761399 C18.6274213,13.2596779 18.6530978,12.883115 18.4367153,12.6349349 C17.8893994,12.0074096 17.315294,11.8716339 16.9299868,11.8682952 C16.0210529,11.8597893 15.369441,12.5486044 15.2985324,12.6271445 C15.0777776,12.8715089 15.0954253,13.2501386 15.3397897,13.4708933 C15.454261,13.574315 15.5975091,13.6254296 15.7401213,13.6254296 Z" id="Path" fill="#000000"></path>
            </g>
            <g id="Group-2" transform="translate(35.963022, 35.323550)" fill="#E4E5E6">
                <circle id="Oval" cx="15" cy="15" r="15"></circle>
            </g>
            <g id="Group-14" transform="translate(41.024542, 41.916610)">
                <g id="Group-3" transform="translate(0.000000, 0.003631)">
                    <mask id="mask-2" fill="white">
                        <use xlink:href="#path-1"></use>
                    </mask>
                    <g id="Clip-2"></g>
                    <path d="M13.4582892,8.77938462 C13.4766277,8.6644 13.4439508,8.46923077 13.4094585,8.28046154 C13.3173662,7.77683077 13.1390277,7.30710769 12.8543508,6.87243077 C12.4077662,6.19046154 11.8047815,5.71236923 11.0432123,5.44793846 C10.4242277,5.23298462 9.79207385,5.17538462 9.13198154,5.31061538 C8.28647385,5.48387692 7.59521231,5.89206154 7.05059692,6.54203077 C6.48662769,7.21501538 6.20192,7.99833846 6.21527385,8.88670769 C6.22124308,9.28446154 6.25588923,9.68052308 6.39542769,10.0477538 C6.53524308,10.4158462 6.72342769,10.7652 6.97432,11.0814462 C7.33139692,11.5316 7.75970462,11.8809538 8.27462769,12.1293538 C9.01915077,12.4885231 9.79779692,12.5548308 10.6014585,12.3990154 C11.1036431,12.3016308 11.5541969,12.0824308 11.9674277,11.7885846 C12.05992,11.7228308 12.1063508,11.7444615 12.1692123,11.8076308 C12.6028738,12.2434154 13.0373662,12.6783385 13.4706585,13.1144923 C13.5594277,13.2038154 13.6456431,13.1991077 13.7338585,13.1170769 C13.8228123,13.0343692 13.9119815,12.9518462 13.9993969,12.8675692 C14.2061969,12.6681538 14.2092123,12.6152308 14.02792,12.4354462 C13.5976738,12.0088308 13.1682585,11.5813538 12.7360738,11.1567077 C12.6902892,11.1117538 12.6835815,11.0803077 12.7225662,11.0296923 C13.2149969,10.3906462 13.4435815,9.66249231 13.4582892,8.77938462 M9.99007385,0.0300307692 C11.3946892,0.03 12.7993662,0.0213846154 14.2038892,0.0339384615 C14.83032,0.0395384615 15.2978892,0.359446154 15.6182277,0.8848 C15.9326585,1.40049231 16.2293662,1.92704615 16.5310585,2.45043077 C16.8099508,2.93424615 17.0832431,3.42129231 17.3625354,3.90486154 C17.6573969,4.41538462 17.9583508,4.92233846 18.2530892,5.43292308 C18.5326892,5.91726154 18.80712,6.40458462 19.0848123,6.89003077 C19.3146585,7.29184615 19.5581354,7.68643077 19.7735815,8.09578462 C20.0563508,8.63307692 20.0612738,9.1888 19.7679815,9.72098462 C19.3310585,10.5139692 18.8721046,11.2948615 18.4210585,12.0800615 C17.9985969,12.8154769 17.5744738,13.55 17.1505046,14.2845538 C16.7390892,14.9973231 16.3322277,15.7127692 15.9126892,16.4207077 C15.7246585,16.7379692 15.5714277,17.0795692 15.2828431,17.3316615 C14.9809046,17.5953846 14.6375508,17.7755692 14.2396431,17.7767385 C11.4048123,17.7849231 8.56982769,17.7910769 5.73508923,17.7720923 C5.13967385,17.7680923 4.67072,17.4461538 4.36315077,16.9294769 C3.95241231,16.2394462 3.55352,15.5423385 3.15188923,14.8469231 C2.85699692,14.3363077 2.56745846,13.8225538 2.27259692,13.3119385 C1.88918154,12.6479385 1.49752,11.9886462 1.12010462,11.3212923 C0.937766154,10.9988615 0.745089231,10.6822769 0.570750769,10.3548 C0.494350769,10.2112615 0.409858462,10.0675692 0.321058462,9.92815385 C-0.120818462,9.23467692 -0.0954646154,8.53855385 0.328750769,7.8436 C0.476412308,7.60169231 0.626689231,7.36156923 0.760258462,7.11036923 C0.916904615,6.81572308 1.10705846,6.53907692 1.27508923,6.25024615 C1.42004308,6.00101538 1.55152,5.74393846 1.69407385,5.49326154 C1.91893538,5.09781538 2.14785846,4.70464615 2.37548923,4.31076923 C2.56084308,3.99006154 2.74632,3.66944615 2.93259692,3.34929231 C3.22379692,2.84867692 3.51681231,2.34913846 3.80693538,1.84790769 C3.98736615,1.53621538 4.15807385,1.2188 4.34342769,0.910123077 C4.67413538,0.359415385 5.15305846,0.036 5.80696615,0.0324 C7.20127385,0.0247384615 8.59567385,0.0300615385 9.99007385,0.0300307692" id="Fill-1" fill="#4485F6" mask="url(#mask-2)"></path>
                </g>
                <path d="M9.83808308,11.6058677 C11.2851908,11.6229754 12.6816523,10.38116 12.5676523,8.64900615 C12.4832831,7.36657538 11.3294677,6.05137538 9.70426769,6.12285231 C8.32229846,6.18362154 7.08663692,7.31159077 7.08943217,8.87651385 C7.09214462,10.3946985 8.32860615,11.6142062 9.83808308,11.6058677 M13.4582985,8.78300615 C13.4435908,9.66611385 13.2150062,10.3942677 12.7225754,11.0333446 C12.6835908,11.08396 12.6902985,11.1153754 12.7360831,11.16036 C13.1682369,11.5850062 13.5976831,12.0124523 14.0279292,12.4390985 C14.2092215,12.6188523 14.2061754,12.6718062 13.9994062,12.8711908 C13.91196,12.9554985 13.8227908,13.0379908 13.7338677,13.1206985 C13.6456523,13.2027292 13.5594062,13.2074369 13.4706677,13.1181138 C13.0373754,12.6819908 12.6028831,12.2470369 12.1692215,11.8112831 C12.1063292,11.7480831 12.0598985,11.7264523 11.9674369,11.7922062 C11.5541754,12.0860523 11.1036215,12.3052523 10.6014677,12.4026369 C9.79780615,12.5584523 9.01916,12.4921446 8.27463692,12.1329754 C7.75971385,11.8845754 7.33140615,11.5352215 6.97429846,11.0850677 C6.72340615,10.7688215 6.53525231,10.4194677 6.39540615,10.0513754 C6.25589846,9.68414462 6.22125231,9.28808308 6.21528308,8.89036 C6.20192923,8.00199077 6.48663692,7.21866769 7.05057538,6.54565231 C7.59522154,5.89568308 8.28648308,5.48749846 9.13196,5.31423692 C9.79208308,5.17900615 10.4242062,5.23663692 11.0432215,5.45156 C11.80476,5.71599077 12.4077754,6.19411385 12.85436,6.87605231 C13.1390062,7.31072923 13.3173754,7.78045231 13.4094369,8.28408308 C13.4439292,8.47285231 13.4766062,8.66802154 13.4582985,8.78300615" id="Fill-4" fill="#FEFEFE"></path>
                <path d="M10.8999815,10.5144769 C11.1185662,10.3816769 11.2872123,10.2218923 11.4240738,10.0319231 C11.48712,9.94444615 11.5729046,9.8626 11.5740738,9.74161538 C11.5755508,9.5882 11.5719508,9.43466154 11.5762585,9.28133846 C11.5783815,9.2066 11.5471508,9.18164615 11.4770277,9.18253846 C11.3185046,9.18463077 11.15992,9.183 11.0013354,9.18370769 C10.94792,9.18392308 10.8990585,9.18743077 10.8993342,9.26318462 C10.90072,9.67524615 10.8999815,10.0873077 10.8999815,10.5144769 M8.80164308,10.5537692 C8.80164308,9.94844615 8.80112,9.37530769 8.80241347,8.80216923 C8.80256615,8.74016923 8.78748923,8.70743077 8.71699692,8.70875385 C8.54284308,8.71207692 8.36856615,8.71038462 8.19435077,8.70964615 C8.14370462,8.70943077 8.10410462,8.71466154 8.10438009,8.78167692 C8.10592,9.12493846 8.10502769,9.4682 8.10604308,9.81146154 C8.10610462,9.83096923 8.11170462,9.85303077 8.12185846,9.86952308 C8.28902769,10.1403231 8.50115077,10.3665692 8.80164308,10.5537692 M10.1598277,9.29330769 C10.1598277,8.83226154 10.1567815,8.37118462 10.1620738,7.9102 C10.1633046,7.80167692 10.1299815,7.76727692 10.0225662,7.77466154 C9.89001231,7.78373846 9.75576615,7.7842 9.62330462,7.7742 C9.50641231,7.7654 9.47684308,7.80690769 9.47785846,7.92075385 C9.48324308,8.51496923 9.48025846,9.10924615 9.48019692,9.70349231 C9.48016615,10.0313385 9.48472,10.3593077 9.47779692,10.687 C9.47536615,10.8031538 9.51342769,10.8407538 9.62724308,10.8332462 C9.75979692,10.8244769 9.89382769,10.8245077 10.0263815,10.8331231 C10.1378892,10.8403846 10.1629969,10.7952769 10.1619508,10.6918 C10.1572738,10.2256769 10.15992,9.75946154 10.1598277,9.29330769 M9.83807385,11.6058615 C8.32862769,11.6142 7.09213538,10.3946923 7.08942294,8.87653846 C7.08662769,7.31158462 8.32232,6.18361538 9.70425846,6.12284615 C11.3294585,6.05136923 12.4833046,7.36656923 12.5676738,8.649 C12.6816431,10.3811538 11.2851815,11.6229692 9.83807385,11.6058615" id="Fill-6" fill="#4485F6"></path>
                <path d="M10.1598677,9.29330769 C10.1598985,9.75946154 10.1572831,10.2256769 10.16196,10.6918 C10.1630062,10.7952769 10.1378985,10.8403846 10.0263908,10.8331231 C9.89383692,10.8245077 9.75980615,10.8244769 9.62722154,10.8332462 C9.51340615,10.8407538 9.47534462,10.8031538 9.47780615,10.687 C9.48472923,10.3593077 9.48017538,10.0313385 9.48020615,9.70349231 C9.48026769,9.10924615 9.48325231,8.51496923 9.47786769,7.92075385 C9.47682154,7.80690769 9.50642154,7.7654 9.62331385,7.7742 C9.75577538,7.7842 9.89002154,7.78373846 10.0225754,7.77466154 C10.12996,7.76727692 10.1633138,7.80167692 10.1620523,7.9102 C10.15676,8.37118462 10.1598369,8.83226154 10.1598677,9.29330769" id="Fill-8" fill="#FEFEFE"></path>
                <path d="M8.80164923,10.5537662 C8.50115692,10.3665662 8.28900308,10.14032 8.12186462,9.86952 C8.11171077,9.85305846 8.10611077,9.83096615 8.10604923,9.81145846 C8.10500308,9.46819692 8.10592615,9.12493538 8.10438625,8.78167385 C8.10411077,8.71465846 8.14371077,8.70945846 8.19435692,8.70964308 C8.36857231,8.71038154 8.54284923,8.71210462 8.71700308,8.70878154 C8.78749538,8.70742769 8.80257231,8.74016615 8.80241962,8.80216615 C8.80109538,9.37530462 8.80164923,9.94844308 8.80164923,10.5537662" id="Fill-10" fill="#FEFEFE"></path>
                <path d="M10.8999815,10.5144769 C10.8999815,10.0873077 10.90072,9.67524615 10.8993342,9.26318462 C10.8990585,9.18743077 10.94792,9.18392308 11.0013354,9.18370769 C11.15992,9.183 11.3185046,9.18463077 11.4770277,9.18253846 C11.5471508,9.18164615 11.5783815,9.2066 11.5762585,9.28133846 C11.5719508,9.43466154 11.5755508,9.5882 11.5740738,9.74161538 C11.5729046,9.8626 11.48712,9.94444615 11.4240738,10.0319231 C11.2872123,10.2218923 11.1185662,10.3816769 10.8999815,10.5144769" id="Fill-12" fill="#FEFEFE"></path>
            </g>
        </g>
    </g>
</svg>