<?xml version="1.0" encoding="UTF-8"?>
<svg width="64px" height="66px" viewBox="0 0 64 66" version="1.1" xmlns="http://www.w3.org/2000/svg" xmlns:xlink="http://www.w3.org/1999/xlink">
    <title>sendSignUpWelcomeEmail</title>
    <defs>
        <polygon id="path-1" points="0.0795519395 0.0504976348 9.1798665 0.0504976348 9.1798665 9.14234248 0.0795519395 9.14234248"></polygon>
        <polygon id="path-3" points="0 0.0500278706 4.54513226 0.0500278706 4.54513226 4.61620132 0 4.61620132"></polygon>
    </defs>
    <g id="functions-icons" stroke="none" stroke-width="1" fill="none" fill-rule="evenodd">
        <g id="sendSignUpWelcomeEmail" transform="translate(0.000057, 0.000071)">
            <path d="M7.01792381,24.4768381 L7.01792381,21.1336 C5.29487619,22.7520762 3.57220952,24.3703619 1.84935238,25.9886476 C2.86897143,25.0503619 4.23030476,24.4768381 5.72535238,24.4768381 L7.01792381,24.4768381 Z" id="Fill-1" fill="#FFC107"></path>
            <path d="M51.1145524,24.4768381 C52.609981,24.4768381 53.9711238,25.0503619 54.9907429,25.9886476 C53.2678857,24.3701714 51.5450286,22.7518857 49.821981,21.1336 L49.821981,24.4768381 L51.1145524,24.4768381 Z" id="Fill-3" fill="#FFC107"></path>
            <path d="M7.01792381,30.214 L7.01792381,24.4768571 L5.72535238,24.4768571 C4.23030476,24.4768571 2.86897143,25.050381 1.84935238,25.9886667 L2.11144762,26.2029524 L7.01792381,30.214 Z" id="Fill-5" fill="#FFD54F"></path>
            <path d="M49.8219619,24.4768381 L49.8219619,30.2141714 L54.7286286,26.2031238 L54.9907238,25.9886476 C53.9711048,25.0503619 52.6099619,24.4768381 51.1145333,24.4768381 L49.8219619,24.4768381 Z" id="Fill-7" fill="#FFD54F"></path>
            <path d="M13.4505333,35.4727619 L14.193581,36.0792381 L19.1347238,40.1192381 L23.1257714,43.3813333 L24.6419619,42.2899048 L27.4699619,40.252381 C27.5111048,40.2306667 27.552819,40.2093333 27.5941524,40.1872381 C27.6303429,40.1681905 27.6661524,40.148381 27.7021524,40.1297143 C27.7324381,40.1137143 27.7623429,40.0961905 27.7930095,40.0807619 C27.8065333,40.0739048 27.8204381,40.0674286 27.8341524,40.0605714 C27.837581,40.0590476 27.840819,40.0575238 27.8440571,40.0558095 C27.8762476,40.0386667 27.9059619,40.0215238 27.9381524,40.0087619 C27.9787238,40.0001905 28.0172,39.996 28.0558667,39.9893333 C28.0636762,39.988381 28.0720571,39.9872381 28.0806286,39.9860952 C28.0876762,39.9847619 28.0951048,39.983619 28.1021524,39.9824762 L28.1023429,39.9824762 L28.1027238,39.9824762 C28.1061524,39.9819048 28.1093905,39.9815238 28.112819,39.9811429 C28.1476762,39.9761905 28.181581,39.971619 28.2151048,39.968 C28.2164381,39.968 28.217581,39.9678095 28.2187238,39.967619 L28.2191048,39.967619 C28.2227238,39.967619 28.2269143,39.967619 28.2303429,39.9659048 C28.232819,39.9657143 28.2349143,39.9655238 28.237581,39.9653333 C28.2821524,39.9611429 28.3250095,39.9571429 28.3636762,39.9531429 C28.364819,39.9531429 28.3657714,39.9537143 28.3671048,39.9542857 L28.3709143,39.9548571 L28.3773905,39.9548571 C28.3806286,39.9550476 28.3842476,39.9552381 28.3876762,39.9550476 C28.4333905,39.9533333 28.4773905,39.9561905 28.5217714,39.9582857 C28.5385333,39.9590476 28.5564381,39.9582857 28.5730095,39.9594286 C28.5747238,39.959619 28.5760571,39.9598095 28.577581,39.96 C28.5792952,39.9601905 28.5806286,39.960381 28.5823429,39.9605714 C28.5844381,39.9607619 28.5863429,39.9609524 28.5882476,39.9611429 C28.6017714,39.9624762 28.6149143,39.9638095 28.6282476,39.9651429 C28.6320571,39.9655238 28.6356762,39.9662857 28.6394857,39.9668571 C28.6770095,39.9712381 28.7143429,39.976381 28.7511048,39.9830476 C28.7533905,39.983619 28.7554857,39.9838095 28.757581,39.9841905 C28.7682476,39.9860952 28.7785333,39.9881905 28.7892,39.9900952 C28.796819,39.9914286 28.8044381,39.9927619 28.8126286,39.9939048 C28.8659619,40.0066667 28.921581,40.019619 28.9730095,40.036381 C28.9743429,40.0367619 28.9754857,40.0373333 28.9766286,40.0377143 C28.9781524,40.0382857 28.9796762,40.0386667 28.9812,40.0390476 C28.9933905,40.0430476 29.0053905,40.048381 29.0177714,40.0525714 C29.0417714,40.0607619 29.0652,40.0702857 29.0890095,40.0790476 C29.1141524,40.0885714 29.1398667,40.0967619 29.1653905,40.1070476 L29.3812,40.2609524 L30.928819,41.375619 L33.7145333,43.3813333 L43.0722476,35.732381 L45.3920571,33.8358095 L45.8107238,33.4935238 L47.0067238,32.5152381 L47.0509143,32.4790476 L48.7850095,31.0615238 L49.5379619,30.4466667 L49.8217714,30.2146667 L49.8217714,30.2146667 L49.8217714,30.2144762 L49.8217714,30.2142857 L49.8217714,30.2144762 L49.8217714,24.4767619 L49.8217714,21.1333333 L49.8217714,21.1333333 L49.8217714,7.45695238 C49.8217714,3.3392381 46.4823429,-7.10542736e-15 42.3627238,-7.10542736e-15 L14.4777714,-7.10542736e-15 C10.3581524,-7.10542736e-15 7.01872381,3.3392381 7.01872381,7.45695238 L7.01872381,30.2148571 L8.37529524,31.324 L13.4147238,35.443619 L13.4505333,35.4727619 Z" id="Path" fill="#EEEEEE"></path>
            <path d="M31.3857524,23.3086857 C31.7569905,23.3086857 32.065181,23.1744 32.3280381,22.8991619 C32.5922286,22.6218286 32.7206095,22.2953524 32.7206095,21.902019 C32.7206095,21.5092571 32.5922286,21.1843048 32.3280381,20.9069714 C32.0640381,20.6294476 31.7556571,20.4944 31.3857524,20.4944 C31.1987048,20.4944 31.0261333,20.5288762 30.8737524,20.5964952 C30.7194667,20.6639238 30.5748952,20.7688762 30.4428952,20.9069714 C30.3107048,21.0456381 30.2116571,21.1974476 30.1470857,21.3589714 C30.0832762,21.5210667 30.0508952,21.7037333 30.0508952,21.902019 C30.0508952,22.2953524 30.1787048,22.6218286 30.4428952,22.8991619 C30.7055619,23.1744 31.0137524,23.3086857 31.3857524,23.3086857" id="Fill-11" fill="#EEEEEE"></path>
            <polygon id="Fill-13" fill="#EEEEEE" points="24.642 42.2898095 23.1258095 43.3812381 19.1347619 40.1191429 23.1258095 43.3821905"></polygon>
            <path d="M27.7021714,40.1296571 C27.6661714,40.1485143 27.6303619,40.1681333 27.5941714,40.1873714 L27.6145524,40.1767048 C27.6438857,40.1610857 27.6730286,40.1450857 27.7021714,40.1296571" id="Fill-15" fill="#EEEEEE"></path>
            <polygon id="Fill-17" fill="#EEEEEE" points="47.0066667 32.5152571 45.8108571 33.4935429 46.5649524 32.8769714"></polygon>
            <path d="M28.2223429,39.9672571 C28.2252,39.9672571 28.2280571,39.9672571 28.2309143,39.9659238 C28.2333905,39.9657333 28.2352952,39.9655429 28.237581,39.9653524 C28.2349143,39.9655429 28.232819,39.9657333 28.2303429,39.9659238 C28.2269143,39.9676381 28.2227238,39.9676381 28.2191048,39.9676381 L28.2202476,39.9676381 C28.2210095,39.9674476 28.2217714,39.9674476 28.2223429,39.9672571" id="Fill-19" fill="#EEEEEE"></path>
            <path d="M28.3670667,39.9542476 C28.3674476,39.9544381 28.368019,39.9546286 28.3685905,39.954819 L28.3710667,39.954819 L28.3670667,39.9542476 Z" id="Fill-21" fill="#EEEEEE"></path>
            <polygon id="Fill-23" fill="#EEEEEE" points="33.7144381 43.3813333 30.9287238 41.375619 33.7146286 43.3820952 43.0723429 35.732381"></polygon>
            <path d="M49.8219619,24.4768381 L49.8219619,21.1336 C49.8219619,21.1334095 49.8219619,21.1334095 49.8217714,21.1334095 L49.8217714,24.4768381 L49.8219619,24.4768381 Z" id="Fill-25" fill="#EEEEEE"></path>
            <polygon id="Fill-27" fill="#EEEEEE" points="49.8217714 24.4768381 49.8217714 30.2143619 49.8219619 30.2141714 49.8219619 24.4768381"></polygon>
            <path d="M7.01811429,24.4768381 L7.01811429,21.1334095 C7.01811429,21.1336 7.01792381,21.1336 7.01792381,21.1336 L7.01792381,24.4768381 L7.01811429,24.4768381 Z" id="Fill-29" fill="#EEEEEE"></path>
            <path d="M7.01847619,24.4768381 L7.01847619,21.133219 C7.01847619,21.133219 7.01828571,21.1334095 7.01809524,21.1334095 L7.01809524,24.4768381 L7.01847619,24.4768381 Z" id="Fill-31" fill="#EEEEEE"></path>
            <polygon id="Fill-33" fill="#EEEEEE" points="7.01792381 24.4768381 7.01792381 30.213981 7.01811429 30.2141714 7.01811429 24.4768381"></polygon>
            <polygon id="Fill-35" fill="#EEEEEE" points="7.01811429 30.2141905 7.01849524 30.214381 7.01849524 24.4768571 7.01811429 24.4768571"></polygon>
            <path d="M49.8217714,24.4768381 L49.8217714,21.1334095 L49.8217714,24.4768381 Z" id="Fill-37" fill="#EEEEEE"></path>
            <polygon id="Fill-39" fill="#EEEEEE" points="49.8217714 24.4768381 49.8217714 24.4768381 49.8217714 21.1334095 49.8217714 21.133219"></polygon>
            <path d="M49.8217714,24.4768381 L49.8217714,30.2143619 L49.8217714,24.4768381 Z" id="Fill-41" fill="#EEEEEE"></path>
            <polygon id="Fill-43" fill="#EEEEEE" points="49.8217714 24.4768381 49.8217714 30.2143619 49.8217714 30.2143619"></polygon>
            <path d="M54.9908571,25.9888381 C56.127619,27.0353143 56.84,28.5351238 56.84,30.2023619 L56.84,30.2023619 L56.8395623,40.4576429 C55.1494785,39.7339334 53.2881688,39.3332571 51.3332762,39.3332571 C45.4137839,39.3332571 40.3523558,43.007067 38.3046844,48.1989943 L33.8497143,44.9981714 L32.7257143,44.1909333 L32.6878095,44.1635048 L29.736381,42.0383619 L29.6634286,41.9865524 C29.680381,42.0004571 29.6973333,42.0137905 29.7142857,42.0275048 C29.6445714,41.9928381 29.5744762,41.9589333 29.5059048,41.9250286 C29.3441905,41.8465524 29.1767619,41.7726476 29.003619,41.7160762 L29.003619,41.7160762 C28.8257143,41.6593143 28.6508571,41.621219 28.472381,41.6124571 C28.0497143,41.5926476 27.6535238,41.7187429 27.2864762,41.9122667 C27.2899048,41.9080762 27.2939048,41.9035048 27.2975238,41.8993143 L27.2975238,41.8993143 L27.2571429,41.9280762 L24.231619,44.105981 L24.1146667,44.1909333 L23.7182857,44.4755048 L23.5761905,44.5776 L23.4329524,44.6802667 L22.9908571,44.9981714 L9.59638095,54.6193143 L7.70361905,55.9789333 L1.96304762,60.1033143 C0.760190476,59.0534095 -8.52651283e-14,57.509219 -8.52651283e-14,55.7876952 L-8.52651283e-14,55.7876952 L-8.52651283e-14,30.2023619 C-8.52651283e-14,28.5351238 0.712571429,27.0353143 1.84914286,25.9888381 L1.84914286,25.9888381 L2.1112381,26.2033143 L7.01790476,30.2143619 L7.01790476,30.2149333 L11.0948571,33.5473143 L13.415619,35.4446476 L14.1925714,36.0796952 L23.1257143,43.3821714 L27.471619,40.2537905 C27.5914286,40.1867429 27.7106667,40.1208381 27.832381,40.0616 C27.868381,40.0442667 27.903619,40.0246476 27.9405714,40.0090286 C27.9900952,39.9981714 28.0375238,39.9924571 28.0851429,39.9854095 C28.0910476,39.9846476 28.0971429,39.9838857 28.1026667,39.9831238 C28.1388571,39.9770286 28.1731429,39.9730286 28.2091429,39.9690286 C28.2112381,39.9688381 28.2135238,39.9684571 28.2158095,39.9682667 L28.2195238,39.9678857 C28.224,39.9673143 28.2270476,39.9671238 28.2302857,39.9667429 C28.276381,39.9617905 28.3224762,39.9568381 28.3641905,39.9545524 L28.3641905,39.9545524 C28.3689524,39.9549333 28.3695238,39.9551238 28.3699048,39.9551238 L28.4824762,39.9554333 L28.4824762,39.9554333 L28.5746667,39.9604571 L28.5746667,39.9604571 L28.6148571,39.9644571 L28.6148571,39.9644571 L28.6287619,39.965981 C28.6714286,39.9701714 28.7142857,39.9766476 28.7569524,39.9850286 L28.7569524,39.9850286 L28.7950476,39.9915048 L28.7950476,39.9915048 L28.808,39.993981 C28.868381,40.0071238 28.928,40.0231238 28.9864762,40.0416 C29,40.045981 29.0131429,40.0516952 29.0266667,40.0562667 C29.0729524,40.0722667 29.1190476,40.0884571 29.164,40.1076952 L29.164,40.1076952 L29.1659048,40.1076952 L29.3807619,40.2625524 L33.7139048,43.3821714 L33.7140952,43.3821714 L43.072381,35.7328381 L45.392,33.8364571 L45.8110476,33.4943619 L46.508381,32.9233143 L47.6780952,31.9669333 L49.1542857,30.7604571 L49.8219048,30.2149333 L49.8219048,30.2143619 L54.7287619,26.2033143 Z" id="Combined-Shape" fill="#FFC107"></path>
            <path d="M28.0970667,39.9834476 C28.0930667,39.984019 28.0890667,39.984781 28.0850667,39.9855429 C28.0909714,39.9845905 28.0970667,39.9838286 28.102781,39.9830667 C28.138781,39.9769714 28.1730667,39.9729714 28.2090667,39.9689714 C28.174019,39.972781 28.1376381,39.976781 28.1029714,39.9824952 C28.1010667,39.9826857 28.0989714,39.9830667 28.0970667,39.9834476" id="Fill-47" fill="#FFD421"></path>
            <path d="M28.2164,39.968 L28.2181143,39.968 C28.2190667,39.968 28.220019,39.967619 28.220781,39.967619 C28.2196381,39.9678095 28.2181143,39.9678095 28.216781,39.968 L28.2164,39.968 Z" id="Fill-49" fill="#FFD421"></path>
            <polygon id="Fill-51" fill="#FFD421" points="45.3928381 33.8353714 43.0722667 35.7323238 33.7145524 43.3820381 33.7147429 43.3822286 43.0722667 35.7328952 45.3920762 33.8365143 45.8109333 33.494419 46.5082667 32.9233714 45.7911238 33.5096571"></polygon>
            <path d="M28.6251619,39.9654095 C28.6217333,39.9650286 28.6183048,39.9646476 28.6148762,39.9644571 C28.6194476,39.9648381 28.6238286,39.9654095 28.628781,39.965981 C28.6714476,39.9701714 28.7143048,39.9766476 28.7569714,39.985219 C28.7655429,39.9861714 28.7737333,39.9875048 28.7821143,39.9890286 C28.7756381,39.9878857 28.7691619,39.9865524 28.7626857,39.985219 C28.7173524,39.9770286 28.6716381,39.9701714 28.6251619,39.9654095" id="Fill-53" fill="#FFD421"></path>
            <path d="M28.3685524,39.9548 C28.3689333,39.9549905 28.3695048,39.955181 28.3698857,39.955181 L28.3738857,39.955181 C28.3729333,39.955181 28.371981,39.9549905 28.3710286,39.9548 L28.3685524,39.9548 Z" id="Fill-55" fill="#FFD421"></path>
            <polygon id="Fill-57" fill="#FFD421" points="45.7910857 33.5096762 45.3920381 33.8357714 43.072419 35.7323429 45.3928 33.8353905"></polygon>
            <path d="M28.3739429,39.9551619 C28.3750857,39.9553524 28.3762286,39.9551619 28.3779429,39.9557333 L28.3878476,39.9557333 C28.3857524,39.9557333 28.3832762,39.9553524 28.381181,39.9551619 L28.3739429,39.9551619 Z" id="Fill-59" fill="#FFD421"></path>
            <path d="M28.5224762,39.9583238 L28.5215238,39.9583238 C28.4902857,39.9568 28.4586667,39.9558476 28.4262857,39.9560381 C28.4137143,39.9558476 28.4013333,39.9552762 28.3885714,39.9556571 C28.4518095,39.9535619 28.5137143,39.9556571 28.5746667,39.960419 C28.5718095,39.9600381 28.5687619,39.9596571 28.5659048,39.9594667 C28.5514286,39.9583238 28.5367619,39.9590857 28.5224762,39.9583238" id="Fill-61" fill="#FFD421"></path>
            <path d="M28.4262095,39.9560952 C28.4585905,39.9559048 28.4902095,39.9568571 28.5214476,39.958381 C28.4930667,39.9574286 28.4644952,39.9559048 28.4355429,39.9560952 C28.4323048,39.9562857 28.4292571,39.9560952 28.4262095,39.9560952" id="Fill-63" fill="#FFD421"></path>
            <path d="M28.3772952,39.9548 L28.3710095,39.9548 C28.3719619,39.9549905 28.3731048,39.955181 28.3738667,39.955181 L28.3811048,39.955181 C28.3797714,39.955181 28.3786286,39.9549905 28.3772952,39.9548" id="Fill-65" fill="#FFD421"></path>
            <path d="M28.973181,40.0368381 C28.9432762,40.0273143 28.912419,40.0206476 28.8817524,40.0128381 C28.8592762,40.0071238 28.837181,40.0002667 28.8145143,39.9951238 C28.8122286,39.9947429 28.8103238,39.9943619 28.8080381,39.993981 C28.868419,40.0071238 28.9280381,40.0231238 28.9863238,40.0416 C28.9823238,40.0404571 28.9781333,40.0385524 28.9739429,40.0370286 C28.9737524,40.0370286 28.9733714,40.0370286 28.973181,40.0368381" id="Fill-67" fill="#FFD421"></path>
            <path d="M29.1173524,40.0896571 C29.0874476,40.0778476 29.0571619,40.0668 29.0266857,40.0563238 C29.0729714,40.0723238 29.1190667,40.0885143 29.164019,40.1077524 L29.1659238,40.1077524 L29.1655429,40.1075619 C29.1497333,40.1008952 29.1333524,40.0957524 29.1173524,40.0896571" id="Fill-69" fill="#FFD421"></path>
            <polygon id="Fill-71" fill="#FFD421" points="13.4154286 35.4441905 12.8487619 34.9809524 11.0948571 33.5472381 13.415619 35.4445714 14.1925714 36.079619 13.4506667 35.4727619"></polygon>
            <polygon id="Fill-73" fill="#FFD421" points="13.4505905 35.4728381 13.414781 35.4436952 12.8488762 34.9810286 13.4153524 35.4442667"></polygon>
            <path d="M28.6389143,39.9667048 C28.6345333,39.9663238 28.6297714,39.9659429 28.6252,39.9653714 C28.6716762,39.9703238 28.7173905,39.9769905 28.7625333,39.9853714 C28.7591048,39.9848 28.7552952,39.9840381 28.7518667,39.9832762 C28.7145333,39.9766095 28.6770095,39.9710857 28.6389143,39.9667048" id="Fill-75" fill="#FFD421"></path>
            <polygon id="Fill-77" fill="#FFD421" points="49.8217714 30.2146667 49.8217714 30.2148571 49.7381524 30.2832381 49.1543429 30.7605714 49.8219619 30.2148571 49.8219619 30.2144762 49.8217714 30.2144762"></polygon>
            <polygon id="Fill-79" fill="#FFD421" points="49.7380762 30.2832952 49.8216952 30.2149143 49.8216952 30.2147238 49.8216952 30.2147238 49.8216952 30.2149143"></polygon>
            <path d="M28.2157524,39.968 C28.2134667,39.968381 28.2113714,39.9687619 28.2090857,39.9689524 C28.2113714,39.9687619 28.2136571,39.968381 28.2157524,39.9681905 C28.2159429,39.9681905 28.2161333,39.968 28.2163238,39.968 L28.2163238,39.968 L28.2157524,39.968 Z" id="Fill-81" fill="#FFD421"></path>
            <polygon id="Fill-83" fill="#FFD421" points="28.2163048 39.968 28.2163048 39.968 28.2166857 39.968"></polygon>
            <path d="M28.2154667,39.9681905 C28.1819429,39.972 28.1480381,39.9758095 28.1128,39.9811429 C28.1093714,39.9815238 28.1059429,39.9819048 28.1023238,39.9824762 C28.1006095,39.9828571 28.0988952,39.9830476 28.0969905,39.9834286 C28.0990857,39.9830476 28.1009905,39.9826667 28.1028952,39.9824762 C28.1377524,39.9767619 28.1741333,39.9727619 28.2089905,39.9689524 C28.2112762,39.9687619 28.2135619,39.968381 28.2156571,39.968 C28.2156571,39.968 28.2156571,39.968 28.2154667,39.9681905" id="Fill-85" fill="#FFD421"></path>
            <polygon id="Fill-87" fill="#FFD421" points="47.6781714 31.9668952 49.1543619 30.7606095 48.9688381 30.9118476"></polygon>
            <polygon id="Fill-89" fill="#FFD421" points="49.6253524 30.3753714 48.9689714 30.9119429 49.1543048 30.7605143 49.7381143 30.2833714"></polygon>
            <polygon id="Fill-91" fill="#FFD421" points="49.7380762 30.2832952 49.8216952 30.2149143 49.8216952 30.2147238 49.6253143 30.3752952"></polygon>
            <path d="M28.5747429,39.960381 C28.5880762,39.9613333 28.6016,39.9628571 28.6149333,39.964381 C28.6036952,39.9630476 28.5928381,39.9617143 28.5816,39.960381 L28.5747429,39.960381 Z" id="Fill-93" fill="#FFD421"></path>
            <path d="M28.6132571,39.9637333 C28.6048762,39.962781 28.5966857,39.9618286 28.5883048,39.9610667 L28.5822095,39.9604952 C28.582019,39.9603048 28.5818286,39.9603048 28.5816381,39.9603048 C28.5928762,39.9616381 28.6037333,39.9629714 28.6149714,39.9644952 C28.6182095,39.9646857 28.6218286,39.9650667 28.6250667,39.9654476 C28.6212571,39.9650667 28.6172571,39.9641143 28.6132571,39.9637333" id="Fill-95" fill="#FFD421"></path>
            <path d="M28.7985143,39.9918095 L28.7889905,39.9900952 C28.7867048,39.9897143 28.784419,39.9893333 28.7821333,39.9889524 C28.7907048,39.9906667 28.7994667,39.9921905 28.8080381,39.9940952 C28.8070857,39.9939048 28.8061333,39.9935238 28.805181,39.9931429 C28.8028952,39.9927619 28.8008,39.992381 28.7985143,39.9918095" id="Fill-97" fill="#FFD421"></path>
            <path d="M28.7687619,39.9862286 C28.7666667,39.9858476 28.7647619,39.9856571 28.7626667,39.9852762 C28.7691429,39.9866095 28.775619,39.9879429 28.7820952,39.9890857 C28.784381,39.9894667 28.7868571,39.9898476 28.7889524,39.9902286 C28.7820952,39.9888952 28.7754286,39.9875619 28.7687619,39.9862286" id="Fill-99" fill="#FFD421"></path>
            <path d="M28.973181,40.0368381 C28.9733714,40.0370286 28.9737524,40.0370286 28.9739429,40.0370286 L28.9737524,40.0370286 C28.9735619,40.0370286 28.9733714,40.0368381 28.973181,40.0368381" id="Fill-101" fill="#FFD421"></path>
            <path d="M28.3870667,39.9551619 L28.3811619,39.9551619 C28.3832571,39.9553524 28.3857333,39.9557333 28.3878286,39.9557333 L28.3882095,39.9557333 L28.3885905,39.9557333 C28.4013524,39.9553524 28.4137333,39.9559238 28.4263048,39.9561143 C28.4129714,39.9561143 28.4005905,39.954781 28.3870667,39.9551619" id="Fill-103" fill="#FFD421"></path>
            <path d="M28.3870667,39.9551619 C28.4005905,39.954781 28.4129714,39.9561143 28.4263048,39.9561143 C28.4293524,39.9561143 28.4324,39.9563048 28.4354476,39.9561143 C28.4194476,39.9563048 28.404019,39.9544 28.3876381,39.9549714 C28.3842095,39.9551619 28.3805905,39.9549714 28.3773524,39.954781 C28.3786857,39.9549714 28.3798286,39.9551619 28.3811619,39.9551619 L28.3870667,39.9551619 Z" id="Fill-105" fill="#FFD421"></path>
            <path d="M28.3879048,39.9557333 C28.3880952,39.9557333 28.3882857,39.9559238 28.3884762,39.9557333 L28.3882857,39.9557333 L28.3879048,39.9557333 Z" id="Fill-107" fill="#FFD421"></path>
            <path d="M28.5779048,39.96 C28.576381,39.96 28.5748571,39.9598095 28.5735238,39.959619 C28.5710476,39.9594286 28.5681905,39.959619 28.5659048,39.9594286 C28.5687619,39.959619 28.5718095,39.96 28.5746667,39.960381 L28.5817143,39.960381 C28.580381,39.960381 28.5790476,39.9601905 28.5779048,39.96" id="Fill-109" fill="#FFD421"></path>
            <path d="M28.5816381,39.960381 C28.5818286,39.960381 28.582019,39.960381 28.5822095,39.9605714 C28.5806857,39.960381 28.5793524,39.9601905 28.5778286,39.96 C28.5789714,39.9601905 28.5803048,39.960381 28.5816381,39.960381" id="Fill-111" fill="#FFD421"></path>
            <path d="M28.8119048,39.994419 C28.809619,39.9940381 28.8075238,39.9936571 28.8052381,39.9930857 C28.8061905,39.9934667 28.8071429,39.9938476 28.8079048,39.9940381 C28.8101905,39.994419 28.8122857,39.9948 28.8145714,39.995181 C28.813619,39.9949905 28.8128571,39.9946095 28.8119048,39.994419" id="Fill-113" fill="#FFD421"></path>
            <path d="M28.6251619,39.9654095 C28.6297333,39.965981 28.6344952,39.9663619 28.6388762,39.9667429 C28.6354476,39.9663619 28.6318286,39.9656 28.6284,39.965219 C28.6232571,39.9646476 28.6183048,39.9642667 28.6133524,39.9636952 C28.6173524,39.9640762 28.6211619,39.9650286 28.6251619,39.9654095" id="Fill-115" fill="#FFD421"></path>
            <path d="M28.7626286,39.9852952 C28.7647238,39.9856762 28.7666286,39.9858667 28.7687238,39.9862476 C28.7651048,39.9854857 28.7612952,39.9847238 28.7576762,39.9841524 C28.7557714,39.9837714 28.7536762,39.983581 28.7517714,39.9832 C28.7553905,39.9839619 28.7590095,39.9847238 28.7626286,39.9852952" id="Fill-117" fill="#FFD421"></path>
            <path d="M28.063219,39.9888381 C28.0626476,39.9890286 28.0620762,39.9890286 28.0615048,39.989219 C28.0213143,39.9949333 27.9813143,40.0006476 27.939981,40.0090286 C27.9034095,40.0246476 27.8683619,40.0442667 27.8325524,40.0616 C27.8685524,40.0442667 27.9036,40.0244571 27.9405524,40.0090286 C27.9900762,39.9981714 28.0375048,39.9924571 28.0851238,39.9854095 C28.0843619,39.9854095 28.0836,39.9856 28.0830286,39.9856 C28.0763619,39.9867429 28.0696952,39.9878857 28.063219,39.9888381" id="Fill-119" fill="#FFD421"></path>
            <path d="M28.0829333,39.9856762 C28.0835048,39.9856762 28.0842667,39.9854857 28.0850286,39.9854857 C28.0890286,39.9847238 28.0930286,39.9839619 28.0970286,39.9833905 C28.0922667,39.9841524 28.0875048,39.9849143 28.0829333,39.9856762" id="Fill-121" fill="#FFD421"></path>
            <path d="M28.2208571,39.9676381 C28.2240952,39.9672571 28.2269524,39.9670667 28.2301905,39.9666857 C28.2275238,39.9670667 28.2248571,39.9672571 28.222,39.9674476 C28.221619,39.9674476 28.2212381,39.9676381 28.2208571,39.9676381" id="Fill-123" fill="#FFD421"></path>
            <path d="M28.2202095,39.9676381 L28.2188762,39.9676381 C28.2186857,39.9676381 28.2186857,39.9678286 28.2184952,39.9678286 C28.2179238,39.9678286 28.2173524,39.968019 28.216781,39.968019 C28.2181143,39.9678286 28.2196381,39.9678286 28.220781,39.9676381 C28.2213524,39.9676381 28.2217333,39.9674476 28.2221143,39.9674476 C28.2215429,39.9674476 28.220781,39.9676381 28.2202095,39.9676381" id="Fill-125" fill="#FFD421"></path>
            <polygon id="Fill-127" fill="#FFD421" points="28.2157524 39.968 28.2163238 39.968 28.2161333 39.968"></polygon>
            <path d="M28.063219,39.9888381 C28.0696952,39.9878857 28.0763619,39.9867429 28.0830286,39.9856 C28.0820762,39.9857905 28.0815048,39.9857905 28.0805524,39.985981 C28.0748381,39.9869333 28.0691238,39.9878857 28.063219,39.9888381" id="Fill-129" fill="#FFD421"></path>
            <path d="M28.0829333,39.9856762 C28.0875048,39.9849143 28.0922667,39.9841524 28.0970286,39.9833905 C28.0987429,39.9830095 28.1006476,39.982819 28.1023619,39.9824381 L28.1021714,39.9824381 C28.0949333,39.983581 28.0876952,39.9847238 28.0806476,39.9860571 C28.0814095,39.9858667 28.0821714,39.9858667 28.0829333,39.9856762" id="Fill-131" fill="#FFD421"></path>
            <path d="M28.2157524,39.968 L28.2161333,39.968 L28.2163238,39.968 L28.2167048,39.968 C28.2172762,39.968 28.2180381,39.9678095 28.2186095,39.9678095 C28.2174667,39.9678095 28.2163238,39.9678095 28.215181,39.968 C28.1816571,39.971619 28.1477524,39.9761905 28.1128952,39.9811429 C28.1481333,39.9758095 28.1820381,39.972 28.2155619,39.9681905 C28.2157524,39.968 28.2157524,39.968 28.2157524,39.968" id="Fill-133" fill="#FFD421"></path>
            <path d="M28.1026476,39.9825143 L28.1024571,39.9825143 C28.1060762,39.9819429 28.1093143,39.9815619 28.1129333,39.981181 C28.1093143,39.9815619 28.1062667,39.9819429 28.1026476,39.9825143" id="Fill-135" fill="#FFD421"></path>
            <polygon id="Fill-137" fill="#FFD421" points="11.0948381 33.5472381 7.01807619 30.2148571 7.01807619 30.2144762 7.01788571 30.2142857 7.01788571 30.2148571"></polygon>
            <polygon id="Fill-139" fill="#FFD421" points="11.0948381 33.5472381 12.8487429 34.9809524 8.37540952 31.324 7.01826667 30.2144762 7.01807619 30.2144762 7.01807619 30.2148571"></polygon>
            <polygon id="Fill-141" fill="#FFD421" points="13.4146857 35.4436381 8.37525714 31.324019 12.848781 34.9809714"></polygon>
            <path d="M29.1655238,40.1075238 L29.1649524,40.1071429 C29.1567619,40.1035238 29.148381,40.1012381 29.1401905,40.098 C29.1327619,40.0949524 29.1249524,40.0926667 29.1173333,40.089619 C29.1333333,40.0957143 29.1497143,40.1008571 29.1655238,40.1075238" id="Fill-143" fill="#FFD421"></path>
            <polygon id="Fill-145" fill="#FFD421" points="33.7138857 43.3822476 33.7140762 43.3822476 29.3807429 40.2624381"></polygon>
            <path d="M49.8217714,30.2145714 L49.8217714,30.2145714 L49.8217714,30.2145714 Z" id="Fill-147" fill="#FFD421"></path>
            <polygon id="Fill-149" fill="#FFD421" points="49.8217714 30.2146667 49.8217714 30.2146667 49.8217714 30.2146667 49.8217714 30.2144762"></polygon>
            <polygon id="Fill-151" fill="#FFD421" points="46.5648952 32.8770476 46.5083238 32.9233333 47.6782286 31.9669524 47.051181 32.4795238"></polygon>
            <polygon id="Fill-153" fill="#FFD421" points="45.8108 33.4934857 45.7909905 33.5096762 46.5083238 32.9233905 46.5648952 32.8771048"></polygon>
            <polygon id="Fill-155" fill="#FFD421" points="45.8108 33.4934857 45.3921333 33.8357714 45.7909905 33.5096762"></polygon>
            <polygon id="Fill-157" fill="#FFD421" points="48.7847619 31.0624952 47.0510476 32.4794476 47.6780952 31.9668762 48.9689524 30.9118286"></polygon>
            <polygon id="Fill-159" fill="#FFD421" points="48.9689143 30.9119238 49.6252952 30.3753524 49.5378667 30.446781 48.7847238 31.0625905"></polygon>
            <polygon id="Fill-161" fill="#FFD421" points="49.8217714 30.2147429 49.8217714 30.2147429 49.5379619 30.4467429 49.6253905 30.3753143"></polygon>
            <path d="M28.6283238,39.965219 C28.6149905,39.9636952 28.6016571,39.9623619 28.5883238,39.961219 C28.5967048,39.9617905 28.6048952,39.9627429 28.6132762,39.9636952 C28.6182286,39.9642667 28.6233714,39.9646476 28.6283238,39.965219" id="Fill-163" fill="#FFD421"></path>
            <path d="M28.5883238,39.9611238 C28.5862286,39.9609333 28.5843238,39.9607429 28.582419,39.9605524 L28.5822286,39.9605524 L28.5883238,39.9611238 Z" id="Fill-165" fill="#FFD421"></path>
            <path d="M28.5779048,39.96 L28.5775238,39.96 C28.5761905,39.9598095 28.5746667,39.959619 28.5735238,39.959619 C28.5748571,39.9598095 28.576381,39.96 28.5779048,39.96" id="Fill-167" fill="#FFD421"></path>
            <path d="M28.5821905,39.9605714 L28.582381,39.9605714 C28.5806667,39.960381 28.5791429,39.9601905 28.577619,39.96 L28.578,39.96 C28.5793333,39.9601905 28.5806667,39.960381 28.5821905,39.9605714" id="Fill-169" fill="#FFD421"></path>
            <path d="M29.1649714,40.1069524 C29.156781,40.1035238 29.1484,40.1014286 29.1402095,40.098 C29.1484,40.1012381 29.156781,40.1035238 29.1649714,40.1071429 L29.1649714,40.1069524 Z" id="Fill-171" fill="#FFD421"></path>
            <path d="M28.989181,40.042419 C28.9882286,40.0420381 28.9872762,40.0418476 28.9863238,40.0416571 C29.0000381,40.0460381 29.013181,40.0517524 29.0267048,40.0563238 C29.0143238,40.0521333 29.0021333,40.046419 28.9897524,40.0426095 C28.9895619,40.0426095 28.9893714,40.042419 28.989181,40.042419" id="Fill-173" fill="#FFD421"></path>
            <path d="M28.9897333,40.0425905 C28.9895429,40.0425905 28.9893524,40.0424 28.9891619,40.0424 C28.9893524,40.0424 28.9895429,40.0425905 28.9897333,40.0425905" id="Fill-175" fill="#FFD421"></path>
            <path d="M28.9769143,40.0379429 C28.9759619,40.0375619 28.9750095,40.0373714 28.9738667,40.0369905 C28.9782476,40.0385143 28.9822476,40.040419 28.9864381,40.0417524 C28.9873905,40.0419429 28.9883429,40.0419429 28.9891048,40.0423238 C28.9849143,40.0409905 28.9811048,40.0392762 28.9769143,40.0379429" id="Fill-177" fill="#FFD421"></path>
            <path d="M29.0745714,40.0736571 C29.0465714,40.063181 29.0185714,40.0521333 28.9898095,40.0426095 C29.0021905,40.046419 29.014381,40.0521333 29.0267619,40.0563238 C29.0570476,40.0668 29.0873333,40.0778476 29.1174286,40.0896571 C29.1031429,40.0843238 29.0888571,40.0788 29.0745714,40.0736571" id="Fill-179" fill="#FFD421"></path>
            <path d="M28.989181,40.042419 C28.9893714,40.042419 28.9895619,40.0426095 28.9897524,40.0426095 C29.0185143,40.0521333 29.0465143,40.063181 29.0745143,40.0736571 C29.0556571,40.0669905 29.0368,40.059181 29.0177524,40.0527048 C29.0053714,40.0483238 28.9933714,40.0429905 28.981181,40.0389905 C28.9798476,40.0386095 28.9783238,40.038419 28.9769905,40.0380381 C28.981181,40.039181 28.9849905,40.0408952 28.989181,40.042419" id="Fill-181" fill="#FFD421"></path>
            <path d="M28.9739238,40.0370095 C28.9750667,40.0373905 28.976019,40.037581 28.9769714,40.0379619 L28.976781,40.0377714 C28.9758286,40.037581 28.9746857,40.0373905 28.9737333,40.0370095 L28.9739238,40.0370095 Z" id="Fill-183" fill="#FFD421"></path>
            <path d="M28.981181,40.0390667 C28.9796571,40.0386857 28.9781333,40.0383048 28.9768,40.0377333 L28.9769905,40.0379238 C28.9783238,40.0383048 28.9798476,40.0386857 28.981181,40.0390667" id="Fill-185" fill="#FFD421"></path>
            <path d="M29.1173524,40.0896571 C29.1249714,40.0927048 29.132781,40.0948 29.1402095,40.0980381 C29.1232571,40.0913714 29.1061143,40.0852762 29.0891619,40.0789905 C29.0842095,40.0772762 29.0794476,40.0755619 29.0744952,40.0736571 C29.0889714,40.0788 29.1032571,40.0843238 29.1173524,40.0896571" id="Fill-187" fill="#FFD421"></path>
            <path d="M29.0890667,40.0790476 C29.0652571,40.0702857 29.0418286,40.0607619 29.0178286,40.0525714 C29.0368762,40.0592381 29.0555429,40.0670476 29.0745905,40.0737143 C29.0793524,40.0754286 29.0843048,40.0771429 29.0890667,40.0790476" id="Fill-189" fill="#FFD421"></path>
            <path d="M28.7985143,39.9918095 C28.7952762,39.9912381 28.7922286,39.9906667 28.789181,39.9900952 L28.7889905,39.9900952 L28.7985143,39.9918095 Z" id="Fill-191" fill="#FFD421"></path>
            <path d="M28.7890286,39.9901333 L28.789219,39.9901333 C28.7785524,39.9880381 28.7682667,39.9861333 28.7576,39.9842286 C28.761219,39.9848 28.7650286,39.9855619 28.7688381,39.9861333 C28.7755048,39.9874667 28.7821714,39.9888 28.7890286,39.9901333" id="Fill-193" fill="#FFD421"></path>
            <path d="M28.7985143,39.9918095 C28.8008,39.992381 28.8028952,39.9927619 28.805181,39.9931429 C28.8028952,39.9927619 28.8008,39.992381 28.7985143,39.9918095" id="Fill-195" fill="#FFD421"></path>
            <path d="M28.805219,39.9931238 C28.8075048,39.9936952 28.8096,39.9940762 28.8118857,39.9944571 C28.8096,39.9940762 28.8075048,39.9936952 28.805219,39.9931238" id="Fill-197" fill="#FFD421"></path>
            <path d="M28.8816762,40.0128381 C28.9123429,40.0206476 28.9432,40.0273143 28.9731048,40.0368381 C28.9732952,40.0368381 28.9734857,40.0370286 28.9736762,40.0370286 C28.9433905,40.0275048 28.9125333,40.0206476 28.8816762,40.0128381" id="Fill-199" fill="#FFD421"></path>
            <path d="M28.8145143,39.9951619 C28.837181,40.0001143 28.8592762,40.0069714 28.8817524,40.0128762 C28.8592762,40.0069714 28.8373714,40.0001143 28.8147048,39.9951619 L28.8145143,39.9951619 Z" id="Fill-201" fill="#FFD421"></path>
            <path d="M28.8119048,39.994419 C28.8128571,39.9946095 28.813619,39.9949905 28.8145714,39.995181 L28.8147619,39.995181 C28.8138095,39.9949905 28.8128571,39.9948 28.8119048,39.994419" id="Fill-203" fill="#FFD421"></path>
            <path d="M28.7518286,39.9832571 C28.7516381,39.9832571 28.7512571,39.9832571 28.7510667,39.9830667 C28.7143048,39.9764 28.6769714,39.9712571 28.6394476,39.9668762 C28.6392571,39.9668762 28.6390667,39.9666857 28.6388762,39.9666857 C28.6769714,39.9712571 28.7146857,39.9765905 28.7518286,39.9832571" id="Fill-205" fill="#FFD421"></path>
            <path d="M28.6394857,39.9668952 C28.6356762,39.9663238 28.6320571,39.9655619 28.6282476,39.965181 C28.6318667,39.9655619 28.6354857,39.9663238 28.6389143,39.9667048 C28.6391048,39.9667048 28.6392952,39.9668952 28.6394857,39.9668952" id="Fill-207" fill="#FFD421"></path>
            <path d="M28.7576,39.9841905 C28.7555048,39.9838095 28.7534095,39.983619 28.7511238,39.9830476 C28.7513143,39.9832381 28.7516952,39.9832381 28.7518857,39.9832381 C28.7536,39.983619 28.7556952,39.9838095 28.7576,39.9841905" id="Fill-209" fill="#FFD421"></path>
            <polygon id="Fill-211" fill="#FFD421" points="28.5224762 39.9583238 28.5217143 39.9583238 28.5215238 39.9583238"></polygon>
            <path d="M28.5215429,39.9583238 L28.5217333,39.9583238 C28.4775429,39.9560381 28.4333524,39.9533714 28.3876381,39.9548952 C28.404019,39.9543238 28.4194476,39.9562286 28.4354476,39.9560381 C28.4645905,39.9558476 28.4929714,39.9573714 28.5215429,39.9583238" id="Fill-213" fill="#FFD421"></path>
            <path d="M28.5224762,39.9583238 C28.5367619,39.9590857 28.5514286,39.9583238 28.5659048,39.9594667 L28.5657143,39.9594667 C28.5514286,39.9583238 28.5367619,39.9588952 28.5224762,39.9583238" id="Fill-215" fill="#FFD421"></path>
            <path d="M28.5658286,39.9594476 C28.5683048,39.9596381 28.5709714,39.9594476 28.5734476,39.9596381 C28.570781,39.9594476 28.5683048,39.9596381 28.5656381,39.9594476 L28.5658286,39.9594476 Z" id="Fill-217" fill="#FFD421"></path>
            <path d="M28.2303429,39.9667048 L28.2303429,39.9667048 C28.2762476,39.9619429 28.3223429,39.9568 28.3642476,39.9547048 L28.3640571,39.9547048 C28.3225333,39.9568 28.2764381,39.9619429 28.2303429,39.9667048" id="Fill-219" fill="#FFD421"></path>
            <path d="M28.2223429,39.9672571 C28.2223429,39.9674476 28.2221524,39.9674476 28.2221524,39.9674476 C28.224819,39.9672571 28.2274857,39.9670667 28.2303429,39.9666857 L28.2303429,39.9666857 C28.2274857,39.9668762 28.2250095,39.9670667 28.2223429,39.9672571" id="Fill-221" fill="#FFD421"></path>
            <path d="M28.2220762,39.9674476 C28.2220762,39.9674476 28.2222667,39.9674476 28.2222667,39.9672571 C28.2216952,39.9674476 28.2209333,39.9674476 28.2201714,39.9676381 C28.2209333,39.9676381 28.2215048,39.9674476 28.2220762,39.9674476" id="Fill-223" fill="#FFD421"></path>
            <polygon id="Fill-225" fill="#FFD421" points="28.2190857 39.9676381 28.2187048 39.9676381 28.2188952 39.9676381"></polygon>
            <polygon id="Fill-227" fill="#FFD421" points="28.2202095 39.9676381 28.2190667 39.9676381 28.2188762 39.9676381"></polygon>
            <path d="M28.218819,39.9676381 L28.218819,39.9676381 C28.2186286,39.9676381 28.2186286,39.9678286 28.2186286,39.9678286 C28.2186286,39.9678286 28.218819,39.9676381 28.218819,39.9676381" id="Fill-229" fill="#FFD421"></path>
            <path d="M28.2187238,39.9676381 C28.217581,39.9678286 28.2164381,39.968019 28.2151048,39.968019 C28.2164381,39.9678286 28.2173905,39.9678286 28.2185333,39.9678286 C28.2187238,39.9678286 28.2187238,39.9676381 28.2187238,39.9676381" id="Fill-231" fill="#FFD421"></path>
            <path d="M27.7927619,40.0812952 C27.7628571,40.0963429 27.7329524,40.1134857 27.7028571,40.1306286 C27.6729524,40.1451048 27.644,40.1612952 27.6144762,40.1767238 C27.5668571,40.2022476 27.5190476,40.2272 27.4714286,40.2536762 L23.1259048,43.3822476 L23.1259048,43.3822476 L27.471619,40.2536762 C27.5914286,40.186819 27.7106667,40.1209143 27.832381,40.0614857 C27.8306667,40.0624381 27.8289524,40.0632 27.8270476,40.0641524 C27.815619,40.0698667 27.8041905,40.0757714 27.7927619,40.0812952" id="Fill-233" fill="#FFD421"></path>
            <path d="M27.7029143,40.1305714 C27.732819,40.1134286 27.7629143,40.0962857 27.792819,40.0812381 C27.8042476,40.0757143 27.8156762,40.07 27.8271048,40.0640952 C27.8261524,40.0646667 27.8252,40.0650476 27.8244381,40.0654286 C27.8139619,40.0709524 27.8036762,40.0757143 27.7932,40.0808571 C27.7623429,40.0959048 27.7326286,40.113619 27.7021524,40.129619 C27.6730095,40.1450476 27.6438667,40.1610476 27.6145333,40.1766667 C27.6440571,40.1612381 27.6730095,40.1450476 27.7029143,40.1305714" id="Fill-235" fill="#FFD421"></path>
            <path d="M27.824381,40.0654667 C27.8139048,40.0706095 27.8034286,40.0755619 27.7929524,40.0807048 C27.7624762,40.0961333 27.7325714,40.1136571 27.7020952,40.1296571 C27.7325714,40.1136571 27.7624762,40.0959429 27.7931429,40.0808952 C27.803619,40.0757524 27.8139048,40.0708 27.824381,40.0654667" id="Fill-237" fill="#FFD421"></path>
            <path d="M28.0614476,39.989219 C28.0597333,39.9894095 28.058019,39.9897905 28.0564952,39.989981 C28.0178286,39.9956952 27.9793524,40.0010286 27.9397333,40.0090286 C27.9073524,40.0229333 27.8761143,40.0395048 27.8446857,40.0556952 C27.8395429,40.057981 27.8345905,40.0604571 27.8296381,40.0631238 L27.8271619,40.0642667 C27.8288762,40.0633143 27.830781,40.0625524 27.8324952,40.0616 C27.8683048,40.0442667 27.9033524,40.0248381 27.9399238,40.0090286 C27.9812571,40.0006476 28.0212571,39.9949333 28.0614476,39.989219" id="Fill-239" fill="#FFD421"></path>
            <path d="M27.8270667,40.0641714 L27.8295429,40.0630286 C27.8278286,40.0637905 27.8261143,40.0647429 27.8244,40.0655048 C27.8251619,40.0651238 27.8261143,40.0647429 27.8270667,40.0641714" id="Fill-241" fill="#FFD421"></path>
            <path d="M28.0614476,39.989219 C28.062019,39.9890286 28.0625905,39.9890286 28.0631619,39.9888381 C28.0629714,39.9888381 28.062781,39.9890286 28.0625905,39.9890286 C28.0622095,39.9890286 28.0618286,39.9890286 28.0614476,39.989219" id="Fill-243" fill="#FFD421"></path>
            <path d="M28.063219,39.9888381 C28.0691238,39.9878857 28.0748381,39.9869333 28.0805524,39.985981 C28.0746476,39.9871238 28.0685524,39.9880762 28.0626476,39.9890286 C28.0628381,39.9890286 28.0630286,39.9888381 28.063219,39.9888381" id="Fill-245" fill="#FFD421"></path>
            <path d="M28.1020952,39.9825143 C28.0950476,39.9836571 28.0878095,39.9848 28.0805714,39.9861333 C28.0878095,39.9848 28.0950476,39.9836571 28.1020952,39.9825143" id="Fill-247" fill="#FFD421"></path>
            <path d="M28.0565143,39.9899619 C28.0580381,39.9897714 28.0597524,39.9893905 28.0614667,39.9892 C28.0618476,39.9890095 28.0622286,39.9890095 28.0626095,39.9890095 C28.0605143,39.9892 28.058419,39.9897714 28.0565143,39.9899619" id="Fill-249" fill="#FFD421"></path>
            <path d="M27.8446476,40.055619 C27.8410286,40.0573333 27.8376,40.0590476 27.8341714,40.0605714 C27.8326476,40.0613333 27.8311238,40.0620952 27.8296,40.0630476 C27.8345524,40.060381 27.8396952,40.0580952 27.8446476,40.055619" id="Fill-251" fill="#FFD421"></path>
            <path d="M27.829581,40.0630667 C27.8311048,40.0621143 27.8326286,40.0613524 27.8341524,40.0605905 C27.8204381,40.0672571 27.8065333,40.0739238 27.7930095,40.080781 C27.8032952,40.0754476 27.8137714,40.0706857 27.8244381,40.0655429 C27.8261524,40.064781 27.8278667,40.0638286 27.829581,40.0630667" id="Fill-253" fill="#FFD421"></path>
            <path d="M28.4722476,41.6131619 C28.6507238,41.6213524 28.825581,41.6592571 28.9960571,41.7141143 L28.9960571,41.7141143 C29.1766286,41.772781 29.3442476,41.8464952 29.5059619,41.9253524 C29.5752952,41.9588762 29.644819,41.9931619 29.7147238,42.028019 L29.7147238,42.028019 L32.7252,44.1908762 L33.8492,44.9981143 L38.3045477,48.1993409 C37.6776561,49.7889665 37.3332762,51.5208947 37.3332762,53.3332571 C37.3332762,56.3872678 38.3111636,59.2128807 39.9709021,61.5140593 L5.72577143,61.5133524 C4.2852,61.5133524 2.96900952,60.9813524 1.96310476,60.1032571 L1.96310476,60.1032571 L7.70348571,55.9790667 L9.5964381,54.6192571 L22.9909143,44.9981143 L23.4330095,44.6802095 L23.5766286,44.5775429 L23.7183429,44.4754476 L24.1147238,44.1908762 L24.149581,44.1655429 L24.2316762,44.1061143 L27.2869143,41.9125905 C27.653581,41.7192571 28.0501524,41.5931619 28.4722476,41.6131619 Z" id="Combined-Shape" fill="#FFD54F"></path>
            <g id="Group-38" transform="translate(9.174876, 17.822762)" fill="#3D3D3D">
                <path d="M19.4086609,5.73444444 C20.0542647,5.73444444 20.6418396,5.51966184 21.1545546,5.09562319 L21.1681198,5.0830628 C21.2660908,4.97856039 21.3153275,4.85848309 21.3153275,4.72484058 C21.3153275,4.65626087 21.3027671,4.58943961 21.2766415,4.5273913 C21.2505159,4.46659903 21.2145932,4.41233816 21.1691246,4.36686957 C21.1256657,4.32341063 21.0744193,4.28849275 21.0181488,4.26136232 C20.9573565,4.23322705 20.8912889,4.21890821 20.8217043,4.21890821 L20.817685,4.21991304 C20.7094145,4.22267633 20.6147092,4.25357488 20.5333179,4.31085024 L20.5245256,4.31763285 C20.2002164,4.59044444 19.8354628,4.72308213 19.4086609,4.72308213 C18.9082551,4.72308213 18.4940135,4.54598068 18.1428251,4.18198068 C17.7916367,3.81898551 17.6210667,3.38841546 17.6210667,2.86766184 C17.6210667,2.34816425 17.7916367,1.91910145 18.1428251,1.55635749 C18.4960232,1.1895942 18.9102647,1.01148792 19.4086609,1.01148792 C19.6169121,1.01148792 19.815115,1.04514976 19.9979942,1.11222222 C20.1828831,1.17879227 20.3532019,1.27550725 20.5004097,1.39583575 C20.6018976,1.48878261 20.7161971,1.53600966 20.8380329,1.53600966 C20.9058589,1.53600966 20.9706705,1.52244444 21.031714,1.49732367 C21.0917527,1.47119807 21.1460135,1.43427053 21.1914821,1.38804831 C21.2359459,1.34157488 21.2706126,1.28731401 21.2949797,1.22727536 C21.3190957,1.16723671 21.331656,1.10041546 21.331656,1.02982609 C21.331656,0.886637681 21.2864386,0.767565217 21.1972599,0.678637681 L21.1884676,0.670850242 C20.6619362,0.225710145 20.0628058,0.000125603865 19.4086609,0.000125603865 C18.6459942,0.000125603865 17.9850667,0.28373913 17.4439652,0.843932367 C16.9068831,1.4006087 16.6340715,2.08087923 16.6340715,2.86766184 C16.6340715,3.65570048 16.9068831,4.33772947 17.4439652,4.8944058 C17.983057,5.45183575 18.6442357,5.73444444 19.4086609,5.73444444" id="Fill-257"></path>
                <path d="M7.70554589,5.58344348 C7.748,5.62991691 7.79849275,5.66759807 7.85551691,5.69372367 C7.91354589,5.72085411 7.97760386,5.73441932 8.04618357,5.73441932 L10.9021643,5.73441932 C11.0327923,5.73441932 11.1498551,5.68116329 11.2407923,5.58143382 C11.3289662,5.48371401 11.3744348,5.36564638 11.3744348,5.22823575 C11.3744348,5.09157874 11.3289662,4.97376232 11.2407923,4.87604251 C11.1498551,4.77530821 11.0327923,4.723057 10.9021643,4.723057 L8.51845411,4.723057 L8.51845411,3.37306667 L10.1889855,3.37306667 C10.3196135,3.37306667 10.4366763,3.32056425 10.5276135,3.22008116 C10.6165411,3.12236135 10.661256,3.00404251 10.661256,2.86763671 C10.661256,2.73022609 10.6165411,2.61215845 10.5276135,2.51443865 C10.4366763,2.41470918 10.3196135,2.36145314 10.1889855,2.36145314 L8.51845411,2.36145314 L8.51845411,1.0114628 L10.9021643,1.0114628 C11.0327923,1.0114628 11.1498551,0.959211594 11.2407923,0.858477295 C11.3289662,0.761762319 11.3744348,0.642941063 11.3744348,0.506284058 C11.3744348,0.369878261 11.3289662,0.250805797 11.2407923,0.15308599 C11.1498551,0.0533565217 11.0327923,0.000100483092 10.9021643,0.000100483092 L8.04618357,0.000100483092 C7.97760386,0.000100483092 7.91354589,0.0136657005 7.85551691,0.0407961353 C7.79849275,0.0669217391 7.748,0.104602899 7.70554589,0.151076329 C7.66284058,0.198303382 7.62993237,0.252815459 7.60757488,0.313607729 C7.58446377,0.374651208 7.57391304,0.438457971 7.57391304,0.506284058 L7.57391304,5.22823575 C7.57391304,5.29882512 7.5854686,5.36363671 7.60757488,5.42367536 C7.6309372,5.48270918 7.66384541,5.53697005 7.70554589,5.58344348" id="Fill-259"></path>
                <path d="M35.1636058,5.58344348 C35.2063111,5.62991691 35.2565527,5.66759807 35.313828,5.69372367 C35.371857,5.72085411 35.4356638,5.73441932 35.5042435,5.73441932 L38.3604754,5.73441932 C38.4911034,5.73441932 38.6081662,5.68116329 38.6991034,5.58143382 C38.7872773,5.48371401 38.8324947,5.36564638 38.8324947,5.22823575 C38.8324947,5.09157874 38.7872773,4.97376232 38.6991034,4.87604251 C38.6081662,4.77530821 38.4911034,4.723057 38.3604754,4.723057 L35.976514,4.723057 L35.976514,3.37306667 L37.6472966,3.37306667 C37.7776734,3.37306667 37.8949874,3.32056425 37.9859246,3.22008116 C38.0751034,3.12236135 38.1195671,3.00404251 38.1195671,2.86763671 C38.1195671,2.73022609 38.0751034,2.61215845 37.9859246,2.51443865 C37.8949874,2.41470918 37.7776734,2.36145314 37.6472966,2.36145314 L35.976514,2.36145314 L35.976514,1.0114628 L38.3604754,1.0114628 C38.4911034,1.0114628 38.6081662,0.959211594 38.6991034,0.858477295 C38.7872773,0.761762319 38.8324947,0.642941063 38.8324947,0.506284058 C38.8324947,0.369878261 38.7872773,0.250805797 38.6991034,0.15308599 C38.6081662,0.0533565217 38.4911034,0.000100483092 38.3604754,0.000100483092 L35.5042435,0.000100483092 C35.4356638,0.000100483092 35.371857,0.0136657005 35.313828,0.0407961353 C35.2565527,0.0669217391 35.2063111,0.104602899 35.1636058,0.151076329 C35.1211517,0.198303382 35.0882435,0.252815459 35.065886,0.313607729 C35.0427749,0.374651208 35.0322242,0.438457971 35.0322242,0.506284058 L35.0322242,5.22823575 C35.0322242,5.29882512 35.0435285,5.36363671 35.065886,5.42367536 C35.0892483,5.48270918 35.1221565,5.53697005 35.1636058,5.58344348" id="Fill-261"></path>
                <path d="M12.4435498,5.58821643 C12.4900232,5.63468986 12.5442841,5.67061256 12.6043227,5.69573333 C12.665115,5.72185894 12.7319362,5.73441932 12.8037816,5.73441932 L15.6886512,5.73441932 C15.8280715,5.73441932 15.9481488,5.6849314 16.0468734,5.58645797 C16.1445932,5.48873816 16.1948348,5.36765604 16.1948348,5.22823575 C16.1948348,5.08982029 16.1445932,4.96898937 16.0468734,4.87126957 C15.9481488,4.77229372 15.8280715,4.723057 15.6886512,4.723057 L13.309714,4.723057 L13.309714,0.506284058 C13.309714,0.366863768 13.2594725,0.246786473 13.1617527,0.148061836 C13.063028,0.050342029 12.9429507,0.000100483092 12.8037816,0.000100483092 C12.6643614,0.000100483092 12.5442841,0.050342029 12.4455594,0.148061836 C12.3478396,0.246786473 12.2973469,0.366863768 12.2973469,0.506284058 L12.2973469,5.22823575 C12.2973469,5.29982995 12.3111633,5.36665121 12.3362841,5.42769469 C12.3614048,5.48873816 12.3980812,5.541743 12.4435498,5.58821643" id="Fill-263"></path>
                <path d="M28.9322473,5.73444444 C29.0716676,5.73444444 29.1907401,5.6842029 29.2884599,5.58648309 C29.3854261,5.48775845 29.4346628,5.36768116 29.4346628,5.22826087 L29.4346628,2.65689855 L30.8125372,5.43450242 C30.9064889,5.63069565 31.0642473,5.73444444 31.2697353,5.73444444 C31.4593971,5.73444444 31.6091169,5.64727536 31.7101024,5.47318841 L33.1045565,2.65765217 L33.1045565,5.22826087 C33.1045565,5.36768116 33.1540444,5.48775845 33.251513,5.58648309 C33.3474744,5.68319807 33.470315,5.73444444 33.6067208,5.73444444 C33.7431266,5.73444444 33.8672232,5.68319807 33.9629333,5.58648309 C34.0596483,5.48775845 34.1091362,5.36768116 34.1091362,5.22826087 L34.1091362,0.506309179 C34.1091362,0.437729469 34.0965758,0.371661836 34.0714551,0.309864734 C34.0460831,0.247816425 34.0104116,0.193555556 33.964943,0.147082126 C33.9184696,0.100859903 33.8642087,0.0639323671 33.8024116,0.0388115942 C33.7413681,0.0126859903 33.6755517,0.000125603865 33.6067208,0.000125603865 C33.4808657,0.000125603865 33.3027594,0.0455942029 33.1673585,0.262386473 L31.2697353,4.09204831 L29.3766338,0.269169082 C29.278914,0.0930724638 29.1249237,0.000125603865 28.9322473,0.000125603865 C28.861658,0.000125603865 28.7948367,0.0136908213 28.7347981,0.0388115942 C28.6750106,0.0639323671 28.6217546,0.100859903 28.57503,0.147082126 C28.5295614,0.193555556 28.492885,0.248821256 28.467513,0.309864734 C28.4436483,0.371661836 28.4310879,0.437729469 28.4310879,0.506309179 L28.4310879,5.22826087 C28.4310879,5.36768116 28.4793198,5.48775845 28.5770396,5.58648309 C28.673001,5.68319807 28.7958415,5.73444444 28.9322473,5.73444444" id="Fill-265"></path>
                <path d="M23.137287,2.15154396 C23.2224464,1.93851981 23.3530744,1.73830725 23.5274126,1.55542802 C23.7014995,1.37330242 23.8921662,1.23513816 24.0953932,1.14595942 C24.2966106,1.05703188 24.5242048,1.01131208 24.7708908,1.01131208 C25.2587362,1.01131208 25.6651903,1.18941836 26.0136155,1.55542802 C26.3620406,1.92118647 26.5313546,2.34999807 26.5313546,2.8677372 C26.5313546,3.38648116 26.3620406,3.81705121 26.0136155,4.18280966 C25.6669488,4.54605604 25.2604947,4.72290628 24.7708908,4.72290628 C24.2802821,4.72290628 23.873828,4.54605604 23.5274126,4.18280966 C23.1789874,3.81705121 23.0104271,3.38648116 23.0104271,2.8677372 C23.0104271,2.60648116 23.0531324,2.36557295 23.137287,2.15154396 M24.7708908,5.73451981 C25.5240116,5.73451981 26.1753932,5.45191111 26.7064464,4.89347633 C27.2387556,4.33504155 27.507799,3.65351498 27.507799,2.8677372 C27.507799,2.47183382 27.441229,2.10205604 27.3083401,1.769457 C27.1759536,1.43535072 26.9734802,1.12460676 26.7064464,0.84501256 C26.1733836,0.284568116 25.5220019,0.000200966183 24.7708908,0.000200966183 C24.0170164,0.000200966183 23.36463,0.284568116 22.8313159,0.84501256 C22.3010164,1.40143768 22.0329778,2.08195942 22.0329778,2.8677372 C22.0329778,3.65552464 22.3010164,4.3368 22.8313159,4.89347633 C23.3626203,5.45191111 24.0150068,5.73451981 24.7708908,5.73451981" id="Fill-267"></path>
                <path d="M1.55145894,5.58344348 C1.65194203,5.68317295 1.7777971,5.73441932 1.92701449,5.73441932 C2.04885024,5.73441932 2.15837681,5.697743 2.25207729,5.6231343 C2.34025121,5.55329855 2.40707246,5.46160773 2.4505314,5.34806184 L3.32724638,2.37702802 L4.20019324,5.34429372 L4.20421256,5.35610048 C4.2381256,5.44301836 4.28836715,5.51963671 4.35142029,5.58143382 C4.4491401,5.68317295 4.57499517,5.73441932 4.72396135,5.73441932 C4.84680193,5.73441932 4.95607729,5.697743 5.05002899,5.6231343 C5.1382029,5.55329855 5.20477295,5.46160773 5.24848309,5.34806184 L6.61982609,0.689163285 C6.63741063,0.629124638 6.64796135,0.570090821 6.65072464,0.506284058 C6.65072464,0.367868599 6.59646377,0.243018357 6.49497585,0.146052174 C6.39449275,0.0495884058 6.26964251,0.000100483092 6.12444444,0.000100483092 C5.98100483,0.000100483092 5.85615459,0.0485835749 5.75366184,0.145298551 C5.69261836,0.202322705 5.64915942,0.26813913 5.62303382,0.345511111 L4.72396135,3.371057 L3.82689855,0.339733333 C3.78997101,0.230457971 3.72038647,0.14429372 3.62266667,0.0842550725 C3.53047343,0.0282357488 3.43099517,0.000100483092 3.32724638,0.000100483092 C3.20842512,0.000100483092 3.10090821,0.0320038647 3.00796135,0.0948057971 C2.91024155,0.16087343 2.84542995,0.247791304 2.81729469,0.349530435 L1.92600966,3.36904734 L1.03171014,0.345511111 L1.02794203,0.333955556 C1.00081159,0.265375845 0.959111111,0.202322705 0.901082126,0.145298551 C0.798338164,0.0485835749 0.673487923,0.000100483092 0.529545894,0.000100483092 C0.385101449,0.000100483092 0.260251208,0.0485835749 0.157758454,0.145298551 C0.0542608696,0.242013527 -1.24945679e-14,0.366863768 -1.24945679e-14,0.506284058 C-1.24945679e-14,0.56029372 0.00879227053,0.618573913 0.0271304348,0.686148792 L1.40525604,5.35308599 C1.44017391,5.44703768 1.49041546,5.52541449 1.55145894,5.58344348" id="Fill-269"></path>
            </g>
            <g id="Group-7" transform="translate(39.333276, 41.333257)">
                <circle id="Oval" fill="#E4E5E6" cx="12" cy="12" r="12"></circle>
                <g id="Group-35" transform="translate(4.342857, 4.444343)">
                    <g id="Group-5" transform="translate(4.450331, 0.000000)">
                        <mask id="mask-2" fill="white">
                            <use xlink:href="#path-1"></use>
                        </mask>
                        <g id="Clip-4"></g>
                        <path d="M9.1576825,4.59355913 C9.16267777,5.99595837 9.15822744,7.39844844 9.17975251,8.80057521 C9.18456613,9.11718448 9.03661533,9.12771996 8.79666074,9.12753832 C7.40933813,9.12626679 6.02192469,9.13625733 4.63451126,9.14234248 C3.11985468,9.14143425 1.60528893,9.14052602 0.0906323557,9.13970861 C0.0869994324,7.62396216 0.0832756859,6.1082157 0.0795519395,4.59246925 C0.0857279092,3.22013245 0.104074172,1.847614 0.0895424787,0.475549669 C0.0859095553,0.136688742 0.173553832,0.0445941343 0.513958751,0.0507701041 C1.88620473,0.0758372753 3.25908647,0.0692071902 4.63169574,0.0742024598 C4.63187739,1.44699338 4.64077805,2.81996594 4.62588307,4.19257521 C4.62234096,4.51163671 4.72451693,4.60491202 5.03858316,4.60136991 C6.41155572,4.58638411 7.78461911,4.59410407 9.1576825,4.59355913" id="Fill-3" fill="#01B3E2" mask="url(#mask-2)"></path>
                    </g>
                    <path d="M13.6080136,4.59355913 C12.2349502,4.59410407 10.8618868,4.58638411 9.48891429,4.60136991 C9.17484806,4.60491202 9.07267209,4.51163671 9.07621419,4.19257521 C9.09110918,2.81996594 9.08220851,1.44699338 9.08202687,0.0742024598 C10.5015917,0.0692980132 11.9211565,0.0678448439 13.3406305,0.0556360056 C13.5535198,0.0538580889 13.6286305,0.115799432 13.6266711,0.335772942 C13.6138263,1.75497446 13.6128272,3.17426679 13.6080136,4.59355913" id="Fill-20" fill="#2E7BBE"></path>
                    <g id="Group-24" transform="translate(0.000000, 4.541154)">
                        <mask id="mask-4" fill="white">
                            <use xlink:href="#path-3"></use>
                        </mask>
                        <g id="Clip-23"></g>
                        <path d="M4.52987398,0.0513422895 C4.53359773,1.56708874 4.53732148,3.08283519 4.54104522,4.59849082 L4.54513226,4.59440378 C3.03728742,4.60166963 1.52944257,4.60893548 0.0216885525,4.61620132 C0.0166024598,3.21434702 0.020053737,1.81240189 7.26584674e-05,0.410729234 C-0.00455931883,0.0824037843 0.148659224,0.048617597 0.413408515,0.0500278706 C1.78556367,0.0574274361 3.15771883,0.0521596973 4.52987398,0.0513422895" id="Fill-22" fill="#ADDFF1" mask="url(#mask-4)"></path>
                    </g>
                    <path d="M4.54099981,9.13968136 C6.05565639,9.14058959 7.57022214,9.14149782 9.08478789,9.14231523 C9.08397048,10.5158327 9.08215402,11.8892594 9.08342554,13.2626861 C9.08360719,13.4831137 9.10431485,13.6800182 8.7724473,13.6757495 C7.3540632,13.6576757 5.93549745,13.657494 4.51693169,13.6507731 C4.52628647,12.1457438 4.53573207,10.6405328 4.54508685,9.1355035 L4.54099981,9.13968136 Z" id="Fill-25" fill="#ADDFF1"></path>
                    <path d="M4.54512318,9.13551258 C4.53567758,10.6405419 4.5263228,12.1457529 4.5168772,13.6507822 C3.04953945,13.6525079 1.58202006,13.6544151 0.114591485,13.6562316 C0.0819859981,13.6277132 0.0493805109,13.5991947 0.0168658467,13.5706763 C0.0185006623,12.0996148 0.0200446547,10.6284624 0.0215886471,9.15740095 C1.52943349,9.15004428 3.03727833,9.14277843 4.54512318,9.13551258" id="Fill-27" fill="#2E7BBE"></path>
                    <path d="M0.016874929,13.5713325 C0.0568005796,13.6090125 0.0968377543,13.6466925 0.136874929,13.6843725 C0.0581388696,13.6943325 0.0181016948,13.6566525 0.016874929,13.5713325" id="Fill-33" fill="#ADDFF1"></path>
                </g>
            </g>
        </g>
    </g>
</svg>