<?xml version="1.0" encoding="UTF-8"?>
<svg width="64px" height="64px" viewBox="0 0 64 64" version="1.1" xmlns="http://www.w3.org/2000/svg" xmlns:xlink="http://www.w3.org/1999/xlink">
    <title>TrackShippingLabelsWithShipEngine</title>
    <defs>
        <linearGradient x1="36.7224809%" y1="37.0501176%" x2="3.33035087%" y2="85.5250516%" id="linearGradient-1">
            <stop stop-color="#31383B" offset="0%"></stop>
            <stop stop-color="#0E171E" offset="100%"></stop>
        </linearGradient>
    </defs>
    <g id="functions-icons" stroke="none" stroke-width="1" fill="none" fill-rule="evenodd">
        <g id="TrackShippingLabelsWithShipEngine">
            <path d="M52.3237557,0 C55.5020845,0 60.8969697,2.90909091 60.8969697,10.2358764 L60.896725,37.1482636 C58.2502952,33.9728708 54.057292,32.2133333 48.9764848,32.2133333 C40.1399289,32.2133333 32.9764848,39.3767773 32.9764848,48.2133333 C32.9764848,49.4677766 33.083071,50.4937353 33.2912619,51.3308007 L9.54310427,51.3292929 C4.05389696,51.1522667 0,47.2565727 0,41.0934165 L0,10.2358764 C0,3.87878788 4.69461942,0 9.54310427,0 L52.3237557,0 Z" id="Combined-Shape" fill="url(#linearGradient-1)" fill-rule="nonzero"></path>
            <circle id="Oval" fill="#E4E5E6" cx="49.4186882" cy="48.7985939" r="14.5454545"></circle>
            <g id="Group-42-Copy" transform="translate(39.500000, 42.000000)" fill-rule="nonzero">
                <path d="M11.6455814,7.20930233 C11.6455814,6.7655814 11.4795349,6.3772093 11.1465116,6.04465116 C10.8139535,5.71209302 10.4255814,5.5455814 9.98232558,5.5455814 C9.53860465,5.5455814 9.15023256,5.71209302 8.81767442,6.04465116 C8.48465116,6.3772093 8.31860465,6.7655814 8.31860465,7.20930233 C8.31860465,7.65302326 8.48465116,8.04093023 8.81767442,8.37395349 C9.15023256,8.70651163 9.53860465,8.87302326 9.98232558,8.87302326 C10.4255814,8.87302326 10.8139535,8.70651163 11.1465116,8.37395349 C11.4795349,8.04093023 11.6455814,7.65302326 11.6455814,7.20930233 L11.6455814,7.20930233 Z M14.9730233,6.48837209 L14.9730233,7.93023256 C14.9730233,7.98604651 14.9730233,8.04093023 14.9176744,8.09674419 L14.8069767,8.20744186 L13.5869767,8.37395349 C13.5311628,8.59581395 13.4204651,8.81767442 13.3093023,8.92837209 C13.475814,9.15023256 13.6976744,9.42744186 14.0302326,9.81581395 C14.0860465,9.87162791 14.0860465,9.92651163 14.0860465,9.98232558 C14.0860465,10.0376744 14.0860465,10.0930233 14.0302326,10.1483721 C13.9195349,10.3148837 13.6976744,10.5367442 13.4204651,10.8693023 C13.1432558,11.2023256 12.9213953,11.3130233 12.8102326,11.3130233 C12.7548837,11.3130233 12.6995349,11.3130233 12.644186,11.2572093 L11.7013953,10.5362791 C11.5348837,10.647907 11.3130233,10.7032558 11.0911628,10.7586047 C11.0353488,11.3683721 10.9804651,11.7567442 10.9246512,11.9786047 C10.9246512,12.1446512 10.8139535,12.2004651 10.7032558,12.2004651 L9.26139535,12.2004651 C9.2055814,12.2004651 9.15023256,12.2004651 9.09488372,12.1446512 C9.03906977,12.0893023 9.03906977,12.0339535 9.03906977,11.9786047 L8.87302326,10.7586047 C8.65116279,10.7027907 8.48465116,10.592093 8.2627907,10.5367442 L7.32,11.2576744 C7.26465116,11.3134884 7.20930233,11.3134884 7.15395349,11.3134884 C7.09813953,11.3134884 7.0427907,11.3134884 6.98744186,11.2576744 C6.43302326,10.7586047 6.1,10.4255814 5.93395349,10.1483721 C5.87813953,10.0930233 5.87813953,10.0376744 5.87813953,9.98232558 C5.87813953,9.92651163 5.87813953,9.87116279 5.93395349,9.81581395 C5.98930233,9.70465116 6.1,9.59395349 6.26651163,9.37209302 C6.43302326,9.15023256 6.54372093,9.03953488 6.59906977,8.92837209 C6.48837209,8.70651163 6.3772093,8.48465116 6.32186047,8.26325581 L5.1572093,8.09674419 C5.10186047,8.09674419 5.04651163,8.04093023 5.04651163,8.04093023 C5.04651163,8.04093023 4.99069767,7.9855814 4.99069767,7.93023256 L4.99069767,6.48837209 C4.99069767,6.43255814 4.99069767,6.3772093 5.04651163,6.32186047 L5.1572093,6.21116279 L6.3772093,6.04465116 C6.43302326,5.8227907 6.54372093,5.65627907 6.65488372,5.43488372 C6.48837209,5.21302326 6.26651163,4.88 5.93395349,4.54744186 C5.87813953,4.49162791 5.87813953,4.43627907 5.87813953,4.38093023 C5.87813953,4.3255814 5.87813953,4.27023256 5.93395349,4.21488372 C6.04465116,4.04837209 6.26651163,3.82651163 6.59906977,3.49395349 C6.93209302,3.16093023 7.09813953,3.05023256 7.20930233,3.05023256 C7.26511628,3.05023256 7.32,3.05023256 7.37581395,3.1055814 L8.2627907,3.82651163 C8.42930233,3.71534884 8.65116279,3.66 8.87302326,3.60465116 C8.92883721,2.9944186 8.98372093,2.60651163 9.03953488,2.38465116 C9.09488372,2.27348837 9.15023256,2.21813953 9.26139535,2.21813953 L10.7032558,2.21813953 C10.7586047,2.21813953 10.8139535,2.21813953 10.8693023,2.27395349 C10.9251163,2.32930233 10.9251163,2.38465116 10.9251163,2.44 L11.0911628,3.66 C11.3130233,3.71581395 11.4795349,3.82651163 11.7013953,3.88186047 L12.644186,3.16093023 C12.6995349,3.10511628 12.7548837,3.10511628 12.8102326,3.10511628 C12.8660465,3.10511628 12.9213953,3.10511628 12.9767442,3.16093023 C13.5311628,3.66 13.9195349,4.04837209 14.0302326,4.27023256 C14.0860465,4.3255814 14.0860465,4.3255814 14.0860465,4.43627907 C14.0860465,4.49209302 14.0860465,4.54744186 14.0302326,4.6027907 C13.9748837,4.71395349 13.864186,4.82465116 13.6976744,5.04651163 C13.5311628,5.26837209 13.4204651,5.37906977 13.3651163,5.49023256 C13.475814,5.71209302 13.5869767,5.93395349 13.6423256,6.1 L14.8069767,6.26651163 C14.8623256,6.26651163 14.9176744,6.32232558 14.9176744,6.32232558 C14.9176744,6.32232558 14.9734884,6.43302326 14.9734884,6.48837209 L14.9730233,6.48837209 Z" id="Shape" fill="#45AAF2"></path>
                <path d="M8.09688234e-14,7.59767442 L8.09688234e-14,6.7655814 C0.263251407,6.7724027 0.51262248,6.64771717 0.665116279,6.43302326 C0.831627907,6.21116279 0.88744186,5.93395349 0.88744186,5.60093023 L0.88744186,2.21860465 C0.88744186,1.55348837 1.10930233,0.998604651 1.4972093,0.610697674 C1.94093023,0.166511628 2.38465116,0 2.93953488,0 L3.93767442,0 L3.93767442,0.942790698 L2.93953488,0.942790698 C2.66232558,0.942790698 2.38511628,1.05348837 2.16325581,1.33116279 C1.94139535,1.60837209 1.83069767,1.8855814 1.83069767,2.27348837 L1.83069767,5.76744186 C1.83069767,6.54418605 1.55302326,6.98744186 1.05395349,7.20930233 C1.55302326,7.43116279 1.83069767,7.93023256 1.83069767,8.65116279 L1.83069767,12.2 C1.83069767,12.5883721 1.94139535,12.9209302 2.16325581,13.1432558 C2.38511628,13.4204651 2.66232558,13.5311628 2.94,13.5311628 L3.93767442,13.5311628 L3.93767442,14.4186047 L2.93953488,14.4186047 C2.38511628,14.4186047 1.88604651,14.1967442 1.49767442,13.8088372 C1.05395349,13.4204651 0.887906977,12.8660465 0.887906977,12.2004651 L0.887906977,8.76186047 C0.887906977,8.42930233 0.832093023,8.15209302 0.666046512,7.93023256 C0.513367376,7.71526063 0.263577215,7.59053998 8.09688234e-14,7.59767442 Z" id="Path" fill="#162948"></path>
                <path d="M16.0823256,13.475814 L17.0804651,13.475814 C17.3576744,13.475814 17.6348837,13.3651163 17.8572093,13.087907 C18.0786047,12.8102326 18.1897674,12.5330233 18.1897674,12.1451163 L18.1897674,8.65116279 C18.1897674,7.8744186 18.4669767,7.37581395 18.9660465,7.20930233 C18.4669767,6.98744186 18.1893023,6.48837209 18.1893023,5.76744186 L18.1893023,2.27348837 C18.1893023,1.8855814 18.0786047,1.55255814 17.8567442,1.33116279 C17.6348837,1.05348837 17.3576744,0.942790698 17.0804651,0.942790698 L16.0823256,0.942790698 L16.0823256,-8.26212483e-16 L17.0804651,-8.26212483e-16 C17.6348837,-8.26212483e-16 18.1339535,0.221860465 18.5223256,0.610232558 C18.9106977,0.998139535 19.1325581,1.55255814 19.1325581,2.21813953 L19.1325581,5.60093023 C19.1325581,5.93395349 19.187907,6.21116279 19.3544186,6.43302326 C19.5204651,6.65488372 19.7423256,6.7655814 19.964186,6.7655814 L19.964186,7.59767442 C19.7423256,7.59767442 19.575814,7.70837209 19.4097674,7.93023256 C19.2432558,8.15209302 19.187907,8.42930233 19.187907,8.76186047 L19.187907,12.2004651 C19.187907,12.8655814 18.9660465,13.3651163 18.5776744,13.8083721 C18.1339535,14.1967442 17.6348837,14.4186047 17.0804651,14.4186047 L16.0823256,14.4186047 L16.0823256,13.475814 L16.0823256,13.475814 Z" id="Path" fill="#162948"></path>
            </g>
            <path d="M26.3772124,29.8024115 C27.6686383,30.0418416 28.9496256,30.3249299 30.1202531,30.9528841 C30.4018313,31.1039476 30.6744154,31.2884277 30.9127294,31.5006782 C31.7047461,32.2061666 31.6932572,33.1355914 30.9037352,33.8431806 C30.4108912,34.2848166 29.8246255,34.5633749 29.214791,34.7965025 C28.2929817,35.1488528 27.3366399,35.372264 26.3675617,35.5484063 C24.3862068,35.9085691 22.3850253,36.0401342 20.3756373,36.0518858 C19.1121132,36.0592387 17.8482609,36.0200449 16.5916302,35.8714761 C15.7615358,35.7733275 14.9299313,35.6776736 14.1062707,35.5382304 C12.886536,35.3316915 11.6888602,35.0329783 10.5699002,34.4834773 C10.0961607,34.2508749 9.65294908,33.9708723 9.3218698,33.54624 C8.89553055,32.999562 8.89231364,32.3409486 9.31464817,31.7914476 C9.69693543,31.294008 10.2270037,30.9991682 10.7833324,30.7485118 C11.8369037,30.2737219 12.9555355,30.0203737 14.0838836,29.8050376 C14.4101047,29.7428002 14.7059949,29.9438243 14.7615359,30.2498905 C14.8187181,30.5644256 14.6281982,30.8401609 14.2938363,30.9080443 C13.4210029,31.085434 12.5453464,31.2576372 11.7159741,31.5906861 C11.3128754,31.752582 10.9299973,31.9661456 10.5437053,32.1673667 C10.4445719,32.2189686 10.3602101,32.3055626 10.2812316,32.3878236 C10.0734454,32.6042758 10.0729858,32.7686009 10.2870746,32.9830835 C10.6029227,33.2996539 11.003658,33.4798666 11.409711,33.6430099 C12.4591463,34.0646223 13.5550627,34.3095015 14.667195,34.4977893 C16.5172474,34.8110114 18.3814148,34.923472 20.5308369,34.920649 C21.6897128,34.9330571 23.1205163,34.8572299 24.5448859,34.6877184 C25.8430738,34.533241 27.1292476,34.3074663 28.3770153,33.9046958 C28.9438483,33.7216601 29.505823,33.5197825 29.9951875,33.1662505 C30.1043655,33.0874034 30.2023828,32.9884013 30.2902899,32.8855914 C30.4049169,32.7514002 30.413189,32.5883225 30.2820178,32.4718572 C30.0716055,32.2850794 29.8546938,32.0948877 29.6113246,31.9580705 C28.9201482,31.569612 28.1617449,31.3539476 27.3963169,31.1677607 C26.9984046,31.0709907 26.5954372,30.9949009 26.1952928,30.9071252 C25.8717634,30.8360905 25.6872177,30.5717786 25.7371127,30.2562586 C25.7830686,29.9652923 26.068192,29.745098 26.3772124,29.8024115 Z M20.5931596,9.05272823 C23.2970722,9.13137844 25.7574186,10.3700207 27.5740545,12.8388361 C28.4216122,13.9906217 28.9329699,15.2908449 29.1494877,16.701559 C29.3916752,18.2798152 29.1983979,19.8178272 28.6649158,21.3167766 C28.0697871,22.9889141 27.1451549,24.4718446 26.0360426,25.8445467 C24.4898899,27.7582152 22.6856621,29.3964766 20.6813292,30.8178919 C20.3453261,31.056206 20.1527053,31.0537769 19.8172931,30.8162506 C17.7439608,29.3475008 15.887015,27.6464767 14.3092184,25.6507442 C13.3079055,24.3842002 12.4692107,23.0200328 11.9015899,21.5002062 C11.3794655,20.1023597 11.1408232,18.6628903 11.2920837,17.1721472 C11.4661908,15.4560891 12.0806865,13.9105929 13.1394443,12.5472789 C14.0976244,11.3135605 15.2980576,10.3882717 16.7341788,9.7730538 C17.8535984,9.29347139 19.0256702,9.06224766 20.5931596,9.05272823 Z M20.179537,11.7501469 C16.6518827,11.726558 13.7797897,14.5469944 13.7502289,18.0637501 C13.7206682,21.5672184 16.5576019,24.4564059 20.0556955,24.485444 C23.60134,24.5149301 26.4667147,21.6828486 26.4937374,18.1221251 C26.5200883,14.6515767 23.6680756,11.7734372 20.179537,11.7501469 Z M20.0612195,12.5426132 C23.1691264,12.5202933 25.6704414,14.987718 25.6922387,18.0971925 C25.7138121,21.1756134 23.2281732,23.6707326 20.1172803,23.6934257 C17.0869329,23.7155216 14.5738982,21.2185362 14.5512051,18.1629577 C14.5284374,15.0853579 16.9998184,12.5644851 20.0612195,12.5426132 Z M22.417148,14.9311498 L22.3111862,14.9320676 L22.0818708,14.9317604 L22.0818708,14.9317604 L21.8519084,14.9316253 L20.9126504,14.9317691 L20.9126504,17.3111087 L19.3315996,17.3111087 L19.3315996,14.9543128 C19.2912149,14.9413987 19.2796444,14.9344564 19.2679992,14.9343817 C18.7829347,14.9331127 18.2979447,14.9315451 17.8128801,14.931993 C17.2629461,14.9325155 16.9420331,15.2490243 16.9414359,15.7978385 C16.939719,17.3402215 16.939943,18.8825299 16.9412866,20.4248382 C16.9417345,20.9832075 17.2616771,21.3027768 17.8218379,21.3032993 C19.3579504,21.304867 20.894063,21.3050909 22.4301009,21.3032247 C22.9794377,21.3025529 23.3007986,20.9814906 23.3027394,20.4355876 C23.3049789,19.7950306 23.3034113,19.1544736 23.3033366,18.5139166 L23.3041297,17.1332965 L23.3018436,15.7526763 C23.2999774,15.3244191 23.028183,15.0008187 22.6276949,14.941324 L22.523027,14.9321395 L22.523027,14.9321395 L22.417148,14.9311498 Z" id="Combined-Shape" fill-opacity="0.7" fill="#FFFFFF"></path>
        </g>
    </g>
</svg>