<?xml version="1.0" encoding="UTF-8"?>
<svg width="64px" height="64px" viewBox="0 0 64 64" version="1.1" xmlns="http://www.w3.org/2000/svg" xmlns:xlink="http://www.w3.org/1999/xlink">
    <title>deleteUserData</title>
    <defs>
        <linearGradient x1="36.7224809%" y1="31.773591%" x2="3.33035087%" y2="100%" id="linearGradient-1">
            <stop stop-color="#31383B" offset="0%"></stop>
            <stop stop-color="#0E171E" offset="100%"></stop>
        </linearGradient>
    </defs>
    <g id="functions-icons" stroke="none" stroke-width="1" fill="none" fill-rule="evenodd">
        <g id="deleteUserData" fill-rule="nonzero">
            <path d="M52,0 C58.627417,0 64,5.372583 64,12 L64,52 C64,58.627417 58.627417,64 52,64 L12,64 C5.372583,64 0,58.627417 0,52 L0,12 C0,5.372583 5.372583,0 12,0 L52,0 Z" id="Path" fill="url(#linearGradient-1)"></path>
            <g id="Group-32" transform="translate(16.500000, 13.000000)">
                <path d="M28.6398735,10.5542022 C28.9126691,10.8441884 29.0535759,11.2336548 29.0293399,11.6307302 C28.2926791,25.0660801 27.9082853,32.0488477 27.8761585,32.5790331 C27.691007,35.6189567 25.1606024,38 22.1150425,38 L9.05129012,38 C6.00573023,38 3.47532565,35.6189567 3.29017412,32.5790331 L2.13699275,11.6307302 C2.11275675,11.2336548 2.25366356,10.8441884 2.52645915,10.5542022 C2.79925474,10.2644978 3.17942131,10.1002004 3.57734222,10.1002004 L27.5889904,10.1002004 C27.9869114,10.1002004 28.3670779,10.2644978 28.6398735,10.5542022 Z M31.1663327,6.70462802 C31.1663327,7.50159696 30.5204158,8.1475138 29.7234469,8.1475138 L1.44288577,8.1475138 C0.645916834,8.1475138 0,7.50159696 0,6.70462802 C0,5.90765909 0.645916834,5.26174225 1.44288577,5.26174225 L9.11385271,5.26174225 C9.37312124,2.31735347 11.8511084,0 14.8617234,0 L16.3046092,0 C19.3152242,0 21.7932114,2.31735347 22.05248,5.26174225 L29.7234469,5.26174225 C30.5204158,5.26174225 31.1663327,5.90765909 31.1663327,6.70462802 Z M12.0218875,5.26174225 L19.1444451,5.26174225 C18.9029309,3.9129822 17.7218499,2.88577154 16.3046092,2.88577154 L14.8617234,2.88577154 C13.4444827,2.88577154 12.2634018,3.9129822 12.0218875,5.26174225 Z" id="Shape" fill-opacity="0.5" fill="#FFFFFF"></path>
                <g id="Group-4" transform="translate(8.500000, 14.890182)">
                    <rect id="Rectangle" fill="#F9C38A" x="5.76741026" y="9.52117895" width="2.70783388" height="2.19376704"></rect>
                    <g id="Group" transform="translate(1.313921, 2.413674)" fill="#FFD39F">
                        <circle id="Oval" cx="10.263211" cy="3.58185928" r="1.16579307"></circle>
                        <circle id="Oval" cx="1.19018689" cy="3.58185928" r="1.16579307"></circle>
                        <path d="M9.65995301,3.92544884 C9.65995301,3.94800614 9.65995301,3.97016419 9.65915453,3.99236217 C9.62354194,6.11578238 7.89122135,7.82594492 5.75945693,7.82594492 C3.60517514,7.82594492 1.85900078,6.07981048 1.85900078,3.92548877 C1.85900078,3.78850808 1.86610732,3.65312437 1.8799611,3.51973689 C2.08305662,1.55585466 3.74207598,0.0250326115 5.75945693,0.0250326115 C7.91381857,0.0250326115 9.65995301,1.77116705 9.65995301,3.92544884 Z" id="Path"></path>
                    </g>
                    <path d="M10.973874,6.33912282 C10.973874,6.36168011 10.973874,6.38383817 10.9730756,6.40603614 L10.6349956,6.35852608 C9.58003269,6.21008709 8.75583296,5.76041835 8.2123019,5.36808107 C8.14974034,5.72831911 8.11017524,6.13051772 8.09787852,6.4262379 L8.08693922,6.68215343 C8.07615963,6.93451569 7.83274044,7.11078201 7.58960072,7.04231163 L7.3433469,6.97296291 C6.29073956,6.676045 5.47288781,5.83643444 4.97371279,5.18802193 L4.34801727,6.2267755 C4.23642852,6.41206473 3.99955693,6.47794003 3.80831896,6.37689132 L3.65233425,6.29448731 C3.48644828,6.20661367 3.33166131,6.07638021 3.19392206,5.93345078 C3.39701758,3.96956855 5.05603694,2.43874651 7.07341789,2.43874651 C9.22773961,2.43874651 10.973874,4.18484103 10.973874,6.33912282 Z" id="Path" fill="#F9C38A"></path>
                    <path d="M10.6524425,5.15512421 L10.7177589,5.77071885 C8.95537521,5.52250873 7.91187064,4.3226202 7.91187064,4.3226202 C7.56628486,4.92276408 7.50452178,6.40128514 7.50452178,6.40128514 C5.95988589,5.96582949 4.94804138,4.08031889 4.94804138,4.08031889 L3.93024814,5.76944126 C3.50904551,5.54658315 3.1115979,4.80866009 3.1115979,4.80866009 L2.4164339,5.30428184 C2.24144516,4.55014947 2.23593559,3.74539293 2.44294371,2.99681005 C2.90610691,1.32230002 4.43253727,-0.0719405801 7.50448186,0.00287778337 C9.75218679,0.0578936344 10.8650002,1.54080637 11.4156378,2.94890075 C11.9219593,4.24420864 11.9520223,5.47647587 11.9520223,5.47647587 L10.6524425,5.15512421 Z" id="Path" fill="#535256"></path>
                    <path d="M10.6524425,5.15512421 L10.7177589,5.77071885 C8.95537521,5.52250873 7.91187064,4.3226202 7.91187064,4.3226202 C7.56628486,4.92276408 7.50452178,6.40128514 7.50452178,6.40128514 C5.95988589,5.96582949 4.94804138,4.08031889 4.94804138,4.08031889 L3.93024814,5.76944126 C3.50904551,5.54658315 3.1115979,4.80866009 3.1115979,4.80866009 L2.4164339,5.30428184 C2.34636654,5.00261293 2.30360749,4.69343822 2.2905522,4.3831057 L2.98076558,3.98214474 C3.16665368,3.87418911 3.4045633,3.94864816 3.49678871,4.14280061 C3.5940446,4.34749311 3.72324002,4.59238951 3.84988028,4.75049021 L4.68493945,3.23507899 C4.8329792,2.96642757 5.22443814,2.98774721 5.34445095,3.27005279 C5.62667668,3.93391605 6.14545459,4.87733009 6.96230823,5.39522967 C6.96230823,5.39522967 7.0402407,4.37871401 7.51873488,3.60972975 C7.64984667,3.39900866 7.94880073,3.3756928 8.10925697,3.56497448 C8.43527979,3.94960634 9.07582719,4.54200489 10.1103488,4.85042104 L10.101246,4.75719751 C10.0768921,4.50818891 10.3034632,4.30836718 10.5474812,4.36370243 L11.7208999,4.62975877 C11.7208999,4.62975877 11.7070461,4.06287192 11.5400023,3.29368804 C11.9271494,4.45477003 11.9521022,5.47647587 11.9521022,5.47647587 L10.6524425,5.15512421 Z" id="Path" fill="#47464B"></path>
                    <g id="Group-21" transform="translate(0.331831, 10.630311)" fill="#FFFFFF">
                        <path d="M12.8778362,6.42254629 C13.1946087,6.42254629 13.394855,5.97538703 13.2459539,5.60510761 C12.0316592,2.58545891 9.63097651,0.529689143 6.86754576,0.529689143 C4.10411502,0.529689143 1.70343232,2.58545891 0.489137621,5.60510761 C0.340236502,5.97538703 0.540482834,6.42254629 0.857255365,6.42254629 L12.8778362,6.42254629 Z" id="Path" fill-opacity="0.597319063"></path>
                        <path d="M13.0532186,6.42254629 C11.7885958,3.62591304 9.49142324,1.756482 6.86775732,1.756482 C4.24373865,1.756482 1.94652687,3.6259654 0.681904139,6.42254629 C0.473975313,6.2948459 0.370226472,5.94698146 0.489143731,5.64849031 C1.70363621,2.60321043 4.10420489,0.529689143 6.86775732,0.529689143 C9.63091781,0.529689143 12.0314865,2.60315808 13.245979,5.64849031 C13.364857,5.94698146 13.261069,6.2948459 13.0532186,6.42254629 Z" id="Path"></path>
                    </g>
                    <path d="M5.29554354,5.96067924 C4.83745074,5.95640732 4.51178724,6.30235242 4.47617466,6.34179775 C4.36530455,6.46452542 4.37416777,6.65468543 4.49689543,6.76555555 C4.5543866,6.81749722 4.62633041,6.84316862 4.69799474,6.84316862 C4.77928086,6.84316862 4.86016773,6.8101112 4.91905625,6.74491462 C4.96796367,6.69245393 5.13121462,6.55750939 5.29266898,6.55954554 C5.39611315,6.56126229 5.49696224,6.62007096 5.60096535,6.7393252 C5.70967955,6.86396924 5.89884145,6.87686483 6.02344557,6.76819056 C6.14808961,6.65947636 6.16098519,6.47035439 6.05231092,6.34571035 C5.77739136,6.03054697 5.48901728,5.96235606 5.29554354,5.96067924 Z" id="Path" fill="#000000"></path>
                    <path d="M8.44090913,6.8431287 C8.52219525,6.8431287 8.60308213,6.81007128 8.66197065,6.7448747 C8.71087806,6.69241401 8.87253204,6.55746947 9.03558337,6.55950562 C9.13902755,6.56122237 9.23987663,6.62003104 9.34387975,6.73928528 C9.45259394,6.86392932 9.64171592,6.87682491 9.76635996,6.76815064 C9.891004,6.65943644 9.90389959,6.47031446 9.79522532,6.34567042 C9.52034568,6.03050705 9.23201152,5.96231614 9.03849786,5.96063931 C8.58200203,5.9563674 8.25474156,6.3023125 8.21912898,6.34175783 C8.10825886,6.4644855 8.11712209,6.65464551 8.23984975,6.76551562 C8.29734092,6.81745729 8.36928472,6.8431287 8.44090913,6.8431287 Z" id="Path" fill="#000000"></path>
                </g>
            </g>
        </g>
    </g>
</svg>