<?xml version="1.0" encoding="UTF-8"?>
<svg width="66px" height="66px" viewBox="0 0 66 66" version="1.1" xmlns="http://www.w3.org/2000/svg" xmlns:xlink="http://www.w3.org/1999/xlink">
    <title>Calculate Shipping Rates with ShipEngine</title>
    <defs>
        <linearGradient x1="23.2610917%" y1="21.9817001%" x2="45.6336116%" y2="85.5232027%" id="linearGradient-1">
            <stop stop-color="#31383B" offset="0%"></stop>
            <stop stop-color="#0E171E" offset="100%"></stop>
        </linearGradient>
    </defs>
    <g id="functions-icons" stroke="none" stroke-width="1" fill="none" fill-rule="evenodd">
        <g id="Calculate-Shipping-Rates-with-ShipEngine">
            <g id="triggerBigQueryTransferWhenFileUploaded-Copy">
                <g id="Group-2" transform="translate(35.963022, 35.323550)" fill="#E4E5E6">
                    <circle id="Oval" cx="15" cy="15" r="15"></circle>
                </g>
                <path d="M53.958873,0 C57.2365246,0 62.8,3 62.8,10.5557475 L62.800257,38.309758 C60.071155,35.0347488 55.7469084,33.22 50.507,33.22 C41.3943016,33.22 34.007,40.6073016 34.007,49.72 C34.007,51.0130647 34.1168185,52.070716 34.3313252,52.9337273 L9.84132628,52.9333333 C4.18058124,52.7507751 0,48.7333406 0,42.3775858 L0,10.5557475 C0,4 4.84132628,0 9.84132628,0 L53.958873,0 Z" id="Combined-Shape" fill="url(#linearGradient-1)" fill-rule="nonzero"></path>
            </g>
            <g id="Group-42" transform="translate(41.000000, 43.000000)" fill-rule="nonzero">
                <path d="M11.6455814,7.20930233 C11.6455814,6.7655814 11.4795349,6.3772093 11.1465116,6.04465116 C10.8139535,5.71209302 10.4255814,5.5455814 9.98232558,5.5455814 C9.53860465,5.5455814 9.15023256,5.71209302 8.81767442,6.04465116 C8.48465116,6.3772093 8.31860465,6.7655814 8.31860465,7.20930233 C8.31860465,7.65302326 8.48465116,8.04093023 8.81767442,8.37395349 C9.15023256,8.70651163 9.53860465,8.87302326 9.98232558,8.87302326 C10.4255814,8.87302326 10.8139535,8.70651163 11.1465116,8.37395349 C11.4795349,8.04093023 11.6455814,7.65302326 11.6455814,7.20930233 L11.6455814,7.20930233 Z M14.9730233,6.48837209 L14.9730233,7.93023256 C14.9730233,7.98604651 14.9730233,8.04093023 14.9176744,8.09674419 L14.8069767,8.20744186 L13.5869767,8.37395349 C13.5311628,8.59581395 13.4204651,8.81767442 13.3093023,8.92837209 C13.475814,9.15023256 13.6976744,9.42744186 14.0302326,9.81581395 C14.0860465,9.87162791 14.0860465,9.92651163 14.0860465,9.98232558 C14.0860465,10.0376744 14.0860465,10.0930233 14.0302326,10.1483721 C13.9195349,10.3148837 13.6976744,10.5367442 13.4204651,10.8693023 C13.1432558,11.2023256 12.9213953,11.3130233 12.8102326,11.3130233 C12.7548837,11.3130233 12.6995349,11.3130233 12.644186,11.2572093 L11.7013953,10.5362791 C11.5348837,10.647907 11.3130233,10.7032558 11.0911628,10.7586047 C11.0353488,11.3683721 10.9804651,11.7567442 10.9246512,11.9786047 C10.9246512,12.1446512 10.8139535,12.2004651 10.7032558,12.2004651 L9.26139535,12.2004651 C9.2055814,12.2004651 9.15023256,12.2004651 9.09488372,12.1446512 C9.03906977,12.0893023 9.03906977,12.0339535 9.03906977,11.9786047 L8.87302326,10.7586047 C8.65116279,10.7027907 8.48465116,10.592093 8.2627907,10.5367442 L7.32,11.2576744 C7.26465116,11.3134884 7.20930233,11.3134884 7.15395349,11.3134884 C7.09813953,11.3134884 7.0427907,11.3134884 6.98744186,11.2576744 C6.43302326,10.7586047 6.1,10.4255814 5.93395349,10.1483721 C5.87813953,10.0930233 5.87813953,10.0376744 5.87813953,9.98232558 C5.87813953,9.92651163 5.87813953,9.87116279 5.93395349,9.81581395 C5.98930233,9.70465116 6.1,9.59395349 6.26651163,9.37209302 C6.43302326,9.15023256 6.54372093,9.03953488 6.59906977,8.92837209 C6.48837209,8.70651163 6.3772093,8.48465116 6.32186047,8.26325581 L5.1572093,8.09674419 C5.10186047,8.09674419 5.04651163,8.04093023 5.04651163,8.04093023 C5.04651163,8.04093023 4.99069767,7.9855814 4.99069767,7.93023256 L4.99069767,6.48837209 C4.99069767,6.43255814 4.99069767,6.3772093 5.04651163,6.32186047 L5.1572093,6.21116279 L6.3772093,6.04465116 C6.43302326,5.8227907 6.54372093,5.65627907 6.65488372,5.43488372 C6.48837209,5.21302326 6.26651163,4.88 5.93395349,4.54744186 C5.87813953,4.49162791 5.87813953,4.43627907 5.87813953,4.38093023 C5.87813953,4.3255814 5.87813953,4.27023256 5.93395349,4.21488372 C6.04465116,4.04837209 6.26651163,3.82651163 6.59906977,3.49395349 C6.93209302,3.16093023 7.09813953,3.05023256 7.20930233,3.05023256 C7.26511628,3.05023256 7.32,3.05023256 7.37581395,3.1055814 L8.2627907,3.82651163 C8.42930233,3.71534884 8.65116279,3.66 8.87302326,3.60465116 C8.92883721,2.9944186 8.98372093,2.60651163 9.03953488,2.38465116 C9.09488372,2.27348837 9.15023256,2.21813953 9.26139535,2.21813953 L10.7032558,2.21813953 C10.7586047,2.21813953 10.8139535,2.21813953 10.8693023,2.27395349 C10.9251163,2.32930233 10.9251163,2.38465116 10.9251163,2.44 L11.0911628,3.66 C11.3130233,3.71581395 11.4795349,3.82651163 11.7013953,3.88186047 L12.644186,3.16093023 C12.6995349,3.10511628 12.7548837,3.10511628 12.8102326,3.10511628 C12.8660465,3.10511628 12.9213953,3.10511628 12.9767442,3.16093023 C13.5311628,3.66 13.9195349,4.04837209 14.0302326,4.27023256 C14.0860465,4.3255814 14.0860465,4.3255814 14.0860465,4.43627907 C14.0860465,4.49209302 14.0860465,4.54744186 14.0302326,4.6027907 C13.9748837,4.71395349 13.864186,4.82465116 13.6976744,5.04651163 C13.5311628,5.26837209 13.4204651,5.37906977 13.3651163,5.49023256 C13.475814,5.71209302 13.5869767,5.93395349 13.6423256,6.1 L14.8069767,6.26651163 C14.8623256,6.26651163 14.9176744,6.32232558 14.9176744,6.32232558 C14.9176744,6.32232558 14.9734884,6.43302326 14.9734884,6.48837209 L14.9730233,6.48837209 Z" id="Shape" fill="#45AAF2"></path>
                <path d="M8.09688234e-14,7.59767442 L8.09688234e-14,6.7655814 C0.263251407,6.7724027 0.51262248,6.64771717 0.665116279,6.43302326 C0.831627907,6.21116279 0.88744186,5.93395349 0.88744186,5.60093023 L0.88744186,2.21860465 C0.88744186,1.55348837 1.10930233,0.998604651 1.4972093,0.610697674 C1.94093023,0.166511628 2.38465116,0 2.93953488,0 L3.93767442,0 L3.93767442,0.942790698 L2.93953488,0.942790698 C2.66232558,0.942790698 2.38511628,1.05348837 2.16325581,1.33116279 C1.94139535,1.60837209 1.83069767,1.8855814 1.83069767,2.27348837 L1.83069767,5.76744186 C1.83069767,6.54418605 1.55302326,6.98744186 1.05395349,7.20930233 C1.55302326,7.43116279 1.83069767,7.93023256 1.83069767,8.65116279 L1.83069767,12.2 C1.83069767,12.5883721 1.94139535,12.9209302 2.16325581,13.1432558 C2.38511628,13.4204651 2.66232558,13.5311628 2.94,13.5311628 L3.93767442,13.5311628 L3.93767442,14.4186047 L2.93953488,14.4186047 C2.38511628,14.4186047 1.88604651,14.1967442 1.49767442,13.8088372 C1.05395349,13.4204651 0.887906977,12.8660465 0.887906977,12.2004651 L0.887906977,8.76186047 C0.887906977,8.42930233 0.832093023,8.15209302 0.666046512,7.93023256 C0.513367376,7.71526063 0.263577215,7.59053998 8.09688234e-14,7.59767442 Z" id="Path" fill="#162948"></path>
                <path d="M16.0823256,13.475814 L17.0804651,13.475814 C17.3576744,13.475814 17.6348837,13.3651163 17.8572093,13.087907 C18.0786047,12.8102326 18.1897674,12.5330233 18.1897674,12.1451163 L18.1897674,8.65116279 C18.1897674,7.8744186 18.4669767,7.37581395 18.9660465,7.20930233 C18.4669767,6.98744186 18.1893023,6.48837209 18.1893023,5.76744186 L18.1893023,2.27348837 C18.1893023,1.8855814 18.0786047,1.55255814 17.8567442,1.33116279 C17.6348837,1.05348837 17.3576744,0.942790698 17.0804651,0.942790698 L16.0823256,0.942790698 L16.0823256,-8.26212483e-16 L17.0804651,-8.26212483e-16 C17.6348837,-8.26212483e-16 18.1339535,0.221860465 18.5223256,0.610232558 C18.9106977,0.998139535 19.1325581,1.55255814 19.1325581,2.21813953 L19.1325581,5.60093023 C19.1325581,5.93395349 19.187907,6.21116279 19.3544186,6.43302326 C19.5204651,6.65488372 19.7423256,6.7655814 19.964186,6.7655814 L19.964186,7.59767442 C19.7423256,7.59767442 19.575814,7.70837209 19.4097674,7.93023256 C19.2432558,8.15209302 19.187907,8.42930233 19.187907,8.76186047 L19.187907,12.2004651 C19.187907,12.8655814 18.9660465,13.3651163 18.5776744,13.8083721 C18.1339535,14.1967442 17.6348837,14.4186047 17.0804651,14.4186047 L16.0823256,14.4186047 L16.0823256,13.475814 L16.0823256,13.475814 Z" id="Path" fill="#162948"></path>
            </g>
            <g id="Group-44" opacity="0.8" transform="translate(11.000000, 9.000000)" fill-rule="nonzero">
                <path d="M9.33333333,5.33333333 L6.66666667,5.33333333 L6.66666667,2.66666667 C6.66666667,1.93 6.07,1.33333333 5.33333333,1.33333333 C4.59666667,1.33333333 4,1.93 4,2.66666667 L4,5.33333333 L1.33333333,5.33333333 C0.596666667,5.33333333 3.48673471e-13,5.93 3.48673471e-13,6.66666667 C3.48673471e-13,7.40266667 0.596666667,8 1.33333333,8 L4,8 L4,10.6666667 C4,11.4026667 4.59666667,12 5.33333333,12 C6.07,12 6.66666667,11.4026667 6.66666667,10.6666667 L6.66666667,8 L9.33333333,8 C10.07,8 10.6666667,7.40266667 10.6666667,6.66666667 C10.6666667,5.93 10.07,5.33333333 9.33333333,5.33333333 Z" id="Path" fill-opacity="0.230862277" fill="#000000"></path>
                <path d="M5.33333333,1.23076152e-14 C6.07,1.23076152e-14 6.66666667,0.596666667 6.66666667,1.33333333 L6.666,3.999 L9.33333333,4 C10.07,4 10.6666667,4.59666667 10.6666667,5.33333333 C10.6666667,6.07 10.07,6.66666667 9.33333333,6.66666667 L6.666,6.666 L6.66666667,9.33333333 C6.66666667,10.07 6.07,10.6666667 5.33333333,10.6666667 C4.59666667,10.6666667 4,10.07 4,9.33333333 L4,6.666 L1.33333333,6.66666667 C0.64,6.66666667 0.0706805075,6.13813149 0.00610082095,5.4617871 L6.9531682e-13,5.33333333 C6.9531682e-13,4.59666667 0.596666667,4 1.33333333,4 L4,3.999 L4,1.33333333 C4,0.64 4.52853518,0.0706805075 5.20487957,0.00610082095 L5.33333333,1.23076152e-14 Z" id="Combined-Shape" fill="#FFFFFF"></path>
            </g>
            <g id="Group-45" opacity="0.8" transform="translate(41.000000, 13.000000)" fill-rule="nonzero">
                <path d="M1.35,4.05 L9.45,4.05 C10.195875,4.05 10.8,3.4452 10.8,2.7 C10.8,1.954125 10.195875,1.35 9.45,1.35 L1.35,1.35 C0.604125,1.35 0,1.954125 0,2.7 C0,3.4452 0.604125,4.05 1.35,4.05 Z" id="Path" fill-opacity="0.230862277" fill="#000000"></path>
                <path d="M10.8,1.35 C10.8,2.095875 10.195875,2.7 9.45,2.7 L1.35,2.7 C0.604125,2.7 0,2.095875 0,1.35 L0,1.35 C0,0.604125 0.604125,0 1.35,0 L9.45,0 C10.195875,0 10.8,0.604125 10.8,1.35 L10.8,1.35 Z" id="Path" fill="#FFFFFF"></path>
            </g>
            <g id="Group-43" opacity="0.8" transform="translate(11.455972, 34.000000)" fill-rule="nonzero">
                <path d="M8.70329167,1.58018056 C8.22601389,1.10290278 7.45234722,1.10290278 6.97506944,1.58018056 L4.530625,4.024625 L2.08618056,1.58018056 C1.60890278,1.10290278 0.835236111,1.10290278 0.357958333,1.58018056 C-0.119319444,2.05745833 -0.119319444,2.831125 0.357958333,3.30840278 L2.80240278,5.75284722 L0.357958333,8.19729167 C-0.119319444,8.67456944 -0.119319444,9.44823611 0.357958333,9.92551389 C0.835236111,10.4027917 1.60890278,10.4027917 2.08618056,9.92551389 L4.530625,7.48106944 L6.97506944,9.92551389 C7.45234722,10.4027917 8.22601389,10.4027917 8.70329167,9.92551389 C9.18056944,9.44823611 9.18056944,8.67456944 8.70329167,8.19729167 L6.25884722,5.75284722 L8.70329167,3.30840278 C9.18056944,2.831125 9.18056944,2.05745833 8.70329167,1.58018056 Z" id="Path" fill-opacity="0.230862277" fill="#000000"></path>
                <path d="M2.08618056,0.357958333 L4.53,2.802 L6.97506944,0.357958333 C7.4205287,-0.0875009259 8.12417562,-0.11719821 8.6040599,0.268866481 L8.70329167,0.357958333 C9.18056944,0.835236111 9.18056944,1.60890278 8.70329167,2.08618056 L6.259,4.53 L8.70329167,6.97506944 C9.18056944,7.45234722 9.18056944,8.22601389 8.70329167,8.70329167 C8.22601389,9.18056944 7.45234722,9.18056944 6.97506944,8.70329167 L4.53,6.259 L2.08618056,8.70329167 C1.60890278,9.18056944 0.835236111,9.18056944 0.357958333,8.70329167 C-0.119319444,8.22601389 -0.119319444,7.45234722 0.357958333,6.97506944 L2.802,4.53 L0.357958333,2.08618056 C-0.0875009259,1.6407213 -0.11719821,0.937074383 0.268866481,0.457190103 L0.357958333,0.357958333 C0.835236111,-0.119319444 1.60890278,-0.119319444 2.08618056,0.357958333 Z" id="Combined-Shape" fill="#FFFFFF"></path>
            </g>
            <path d="M32,-1.42108547e-14 L32,26 L62.800257,26 L62.800257,27 L32,27 L32,52.9337273 L31,52.9337273 L31,27 L5.68434189e-14,27 L5.68434189e-14,26 L31,26 L31,-1.42108547e-14 L32,-1.42108547e-14 Z" id="Combined-Shape" fill-opacity="0.291597166" fill="#000000" fill-rule="nonzero"></path>
        </g>
    </g>
</svg>