<?xml version="1.0" encoding="UTF-8"?>
<svg width="66px" height="66px" viewBox="0 0 66 66" version="1.1" xmlns="http://www.w3.org/2000/svg" xmlns:xlink="http://www.w3.org/1999/xlink">
    <title>addNewUserToFirestore</title>
    <defs>
        <polygon id="path-1" points="0 0.00171168658 20.357564 0.00171168658 20.357564 18.120959 0 18.120959"></polygon>
    </defs>
    <g id="functions-icons" stroke="none" stroke-width="1" fill="none" fill-rule="evenodd">
        <g id="addNewUserToFirestore">
            <path d="M53.958873,0 C57.2365246,0 62.8,3 62.8,10.5557475 L62.800257,38.309758 C60.071155,35.0347488 55.7469084,33.22 50.507,33.22 C41.3943016,33.22 34.007,40.6073016 34.007,49.72 C34.007,51.0130647 34.1168185,52.070716 34.3313252,52.9337273 L9.84132628,52.9333333 C4.18058124,52.7507751 1.13686838e-13,48.7333406 1.13686838e-13,42.3775858 L1.13686838e-13,10.5557475 C1.13686838e-13,4 4.84132628,0 9.84132628,0 L53.958873,0 Z" id="Combined-Shape" fill="#699DF6" fill-rule="nonzero"></path>
            <g id="Group-6" opacity="0.200833275" transform="translate(33.197974, 14.876632)" fill="#000000" fill-rule="nonzero">
                <path d="M22.7488779,10.4026062 C23.461293,10.4026062 24.0385505,10.9800356 24.0385505,11.6922788 C24.0385505,12.4045219 23.461293,12.9819513 22.7488779,12.9819513 L22.7488779,12.9819513 L12.7589884,12.9819513 C12.0465733,12.9819513 11.4693159,12.4045219 11.4693159,11.6922788 C11.4693159,10.9800356 12.0465733,10.4026062 12.7589884,10.4026062 L12.7589884,10.4026062 Z M22.7488779,5.06927288 C23.461293,5.06927288 24.0385505,5.64670227 24.0385505,6.35894542 C24.0385505,7.07118858 23.461293,7.64861797 22.7488779,7.64861797 L22.7488779,7.64861797 L2.09232175,7.64861797 C1.37990663,7.64861797 0.802649202,7.07118858 0.802649202,6.35894542 C0.802649202,5.64670227 1.37990663,5.06927288 2.09232175,5.06927288 L2.09232175,5.06927288 Z M22.7488779,0 C23.461293,0 24.0385505,0.577429387 24.0385505,1.28967254 C24.0385505,2.0019157 23.461293,2.57934509 22.7488779,2.57934509 L22.7488779,2.57934509 L2.09232175,2.57934509 C1.37990663,2.57934509 0.802649202,2.0019157 0.802649202,1.28967254 C0.802649202,0.577429387 1.37990663,0 2.09232175,0 L2.09232175,0 Z" id="Combined-Shape"></path>
            </g>
            <g id="Group-4" transform="translate(6.180581, 10.168000)" fill-rule="nonzero">
                <rect id="Rectangle" fill="#F9C38A" x="10.416888" y="18.9577252" width="5.39159812" height="4.36803393"></rect>
                <g id="Group" transform="translate(1.549496, 4.805893)" fill="#FFD39F">
                    <circle id="Oval" cx="20.4351935" cy="7.13187982" r="2.32122353"></circle>
                    <circle id="Oval" cx="2.36979434" cy="7.13187982" r="2.32122353"></circle>
                    <path d="M19.2340398,7.81600481 C19.2340398,7.86091889 19.2340398,7.90503804 19.2324499,7.94923668 C19.1615413,12.1772023 15.7122985,15.5823259 11.4677187,15.5823259 C7.17830429,15.5823259 3.7014771,12.1055782 3.7014771,7.8160843 C3.7014771,7.54334054 3.71562703,7.27377653 3.74321143,7.00818722 C4.14759719,3.09787949 7.45088906,0.0498427108 11.4677187,0.0498427108 C15.7572921,0.0498427108 19.2340398,3.5265904 19.2340398,7.81600481 Z" id="Path"></path>
                </g>
                <path d="M20.7835359,12.6218979 C20.7835359,12.666812 20.7835359,12.7109311 20.781946,12.7551297 L20.1087912,12.6605319 C18.0082429,12.3649734 16.3671696,11.469633 15.2849389,10.6884459 C15.1603719,11.4057198 15.0815934,12.2065419 15.0571092,12.7953537 L15.0353279,13.3049099 C15.0138645,13.8073912 14.5291899,14.1583571 14.0450717,14.0220249 L13.5547529,13.8839439 C11.4588948,13.2927474 9.83046106,11.6209895 8.83654812,10.3299281 L7.59071884,12.3982019 C7.36853323,12.7671333 6.89689558,12.8982984 6.51611953,12.6970992 L6.20553664,12.5330236 C5.87523925,12.3580574 5.56704118,12.0987481 5.29278703,11.8141598 C5.69717279,7.90385205 9.00046466,4.85581527 13.0172943,4.85581527 C17.3067882,4.85581527 20.7835359,8.33248347 20.7835359,12.6218979 Z" id="Path" fill="#F9C38A"></path>
                <path d="M20.14353,10.2644251 L20.2735822,11.4901424 C16.7644804,10.9959285 14.6867469,8.60681711 14.6867469,8.60681711 C13.9986472,9.80177027 13.87567,12.74567 13.87567,12.74567 C10.8001283,11.8786294 8.78543351,8.12436829 8.78543351,8.12436829 L6.75889407,11.4875986 C5.92023283,11.0438633 5.12887049,9.57457654 5.12887049,9.57457654 L3.74472172,10.5614145 C3.39629971,9.05985317 3.38532954,7.45749348 3.7975057,5.9669818 C4.7197151,2.63284627 7.75900754,-0.143241688 13.8755905,0.00572998645 C18.3510208,0.115272659 20.5667559,3.06791669 21.6631365,5.87158905 C22.6712789,8.45069098 22.7311378,10.904272 22.7311378,10.904272 L20.14353,10.2644251 Z" id="Path" fill="#ADACB2"></path>
                <path d="M20.14353,10.2644251 L20.2735822,11.4901424 C16.7644804,10.9959285 14.6867469,8.60681711 14.6867469,8.60681711 C13.9986472,9.80177027 13.87567,12.74567 13.87567,12.74567 C10.8001283,11.8786294 8.78543351,8.12436829 8.78543351,8.12436829 L6.75889407,11.4875986 C5.92023283,11.0438633 5.12887049,9.57457654 5.12887049,9.57457654 L3.74472172,10.5614145 C3.60520982,9.96075818 3.5200718,9.34515698 3.49407727,8.72725045 L4.86836879,7.92889265 C5.23849266,7.71394099 5.71219714,7.86219722 5.89582818,8.24877633 C6.08947546,8.65634185 6.34671791,9.14395778 6.59887274,9.45875384 L8.26156834,6.44140173 C8.55633193,5.9064869 9.33577017,5.94893667 9.57472901,6.51103844 C10.1366718,7.83286395 11.1696163,9.71130614 12.7960626,10.7425018 C12.7960626,10.7425018 12.9512348,8.71850612 13.9039699,7.18737302 C14.165028,6.76780392 14.7602788,6.72137945 15.079765,7.09826029 C15.7289126,7.86410507 17.0043137,9.0436364 19.0641611,9.65772722 L19.0460365,9.47210883 C18.9975452,8.97630502 19.4486734,8.57843777 19.9345404,8.68861639 L22.2709473,9.21836412 C22.2709473,9.21836412 22.2433629,8.08962943 21.9107602,6.55809886 C22.6816131,8.86994211 22.7312968,10.904272 22.7312968,10.904272 L20.14353,10.2644251 Z" id="Path" fill="#8A8791"></path>
                <path d="M25.228202,31.2568712 C25.8706721,31.2568712 26.2768068,30.5721103 25.9748092,30.0050799 C23.512007,25.3809164 18.6430021,22.2327967 13.0382807,22.2327967 C7.43355928,22.2327967 2.56455444,25.3809164 0.101752165,30.0050799 C-0.200245376,30.5721103 0.205889248,31.2568712 0.848359406,31.2568712 L25.228202,31.2568712 Z" id="Path" fill-opacity="0.5" fill="#C4E3FF"></path>
                <path d="M25.583858,31.179921 C23.0189854,26.9338308 18.3599241,24.0954991 13.0386782,24.0954991 C7.71671676,24.0954991 3.05757596,26.9339103 0.492703444,31.179921 C0.0709880039,30.9860353 -0.139432499,30.4578774 0.101752165,30.0046824 C2.56495191,25.3810754 7.43371827,22.2328762 13.0386782,22.2328762 C18.6428431,22.2328762 23.5116095,25.3809959 25.9748092,30.0046824 C26.2159144,30.4578774 26.0054144,30.9860353 25.583858,31.179921 Z" id="Path" fill="#B5DCFF"></path>
                <path d="M9.47734891,11.8683747 C8.56523525,11.8598688 7.91680305,12.5486839 7.84589444,12.627224 C7.62513972,12.8715884 7.64278738,13.2502181 7.8871518,13.4709728 C8.0016231,13.5743945 8.14487121,13.6255091 8.28756286,13.6255091 C8.44941255,13.6255091 8.61046731,13.5596881 8.7277209,13.4298744 C8.82510099,13.3254194 9.15015178,13.0567298 9.47162534,13.060784 C9.67759419,13.0642022 9.87839592,13.1812968 10.0854777,13.4187453 C10.3019397,13.6669254 10.6785821,13.692602 10.9266827,13.4762194 C11.1748629,13.2597574 11.2005394,12.8831945 10.9841569,12.6350144 C10.4367615,12.0074891 9.86257662,11.8717134 9.47734891,11.8683747 Z" id="Path" fill="#000000"></path>
                <path d="M15.7401213,13.6254296 C15.901971,13.6254296 16.0630257,13.5596086 16.1802793,13.429795 C16.2776594,13.3253399 16.5995305,13.0566503 16.9241838,13.0607045 C17.1301526,13.0641228 17.3309544,13.1812174 17.5380361,13.4186658 C17.7544982,13.6668459 18.131061,13.6925225 18.3792412,13.4761399 C18.6274213,13.2596779 18.6530978,12.883115 18.4367153,12.6349349 C17.8893994,12.0074096 17.315294,11.8716339 16.9299868,11.8682952 C16.0210529,11.8597893 15.369441,12.5486044 15.2985324,12.6271445 C15.0777776,12.8715089 15.0954253,13.2501386 15.3397897,13.4708933 C15.454261,13.574315 15.5975091,13.6254296 15.7401213,13.6254296 Z" id="Path" fill="#000000"></path>
            </g>
            <g id="Group-2" transform="translate(35.963022, 35.323550)" fill="#E4E5E6">
                <circle id="Oval" cx="15" cy="15" r="15"></circle>
            </g>
            <g id="firestore" transform="translate(40.569083, 41.656891)">
                <g id="Group-3">
                    <mask id="mask-2" fill="white">
                        <use xlink:href="#path-1"></use>
                    </mask>
                    <g id="Clip-2"></g>
                    <path d="M13.4871991,18.1193259 C11.0152112,18.1197334 8.54325051,18.1215131 6.07127622,18.118538 C5.33743815,18.117655 4.77188875,17.805245 4.40118634,17.1652644 C3.60733056,15.7946789 2.81677589,14.4221644 2.02482198,13.0504785 C1.44104176,12.0393472 0.855984572,11.0289359 0.273793778,10.0168809 C-0.0972074959,9.37195541 -0.0882415186,8.72641863 0.282868434,8.08385692 C0.71062706,7.34319927 1.13869814,6.60271822 1.56637526,5.86201982 C2.44437538,4.34143082 3.3221989,2.82076031 4.20009034,1.30010339 C4.2724974,1.17468839 4.34203806,1.04752094 4.4175968,0.924034981 C4.77845022,0.334304615 5.30283763,0.00824190673 5.99641031,0.00662531385 C8.78529114,0.000118187883 11.5742127,-3.12450725e-05 14.3630936,0.00680191643 C15.0566527,0.00850001819 15.5842189,0.333421602 15.9397063,0.926724774 C16.190876,1.34592497 16.4296155,1.77255606 16.6739791,2.19583169 C17.6355802,3.86149292 18.5972084,5.52712698 19.5588502,7.19278821 C19.7398543,7.50631214 19.9254229,7.81732287 20.1008436,8.13395772 C20.4417681,8.74930904 20.4449469,9.37130334 20.0995394,9.98373393 C19.6949701,10.7010936 19.2778619,11.4113892 18.8658481,12.1245376 C18.8547357,12.1437465 18.8395887,12.1606189 18.8263299,12.1785916 C18.8043089,12.1321315 18.7633779,12.1019461 18.7284377,12.0669923 C17.0770949,10.4152284 7.93914741,12.3775955 8.44044063,12.8728979 C9.45642171,13.8767477 10.4741552,14.8791304 11.4640399,15.909457 C12.1406587,16.6137345 12.8429257,17.2933556 13.5329527,17.9847683 C13.5704876,18.0223847 13.6198684,18.0515784 13.6350562,18.1082135 C13.5869524,18.1272594 13.5365663,18.1193123 13.4871991,18.1193259 Z" id="Fill-1" fill="#4585F4" mask="url(#mask-2)"></path>
                </g>
                <path d="M13.8939373,7.0027964 C13.9411853,7.02375777 17.077099,10.4152365 18.7284282,12.0669869 C18.7633819,12.1019542 18.8042994,12.1321261 18.8263204,12.1785862 C18.6842096,12.4616122 18.5160296,12.7299123 18.3581198,13.0039587 C17.5562218,14.3955871 16.752354,15.7861015 15.9484726,17.1765751 C15.66239,17.6713884 15.2383808,17.9755388 14.676934,18.0848422 C14.5973677,18.1003153 14.5155736,18.1080722 14.4344858,18.1115364 C14.1680469,18.1229204 13.9014449,18.1294547 13.6350603,18.1082217 C13.6198589,18.0515866 13.5704916,18.0223792 13.5329568,17.9847765 C12.8429298,17.2933502 12.1406628,16.6137427 11.464044,15.9094652 C10.4741593,14.8791249 9.45642579,13.8767423 8.44044471,12.872906 C7.93915148,12.3776037 7.44064314,11.7284453 6.93674163,11.2356426 C6.89631323,11.1960972 6.93080507,10.7021739 6.93674163,10.6314378 C6.93674163,10.6314378 6.89756154,7.0027964 6.90208528,7.0027964" id="Fill-4" fill="#407BE0"></path>
                <path d="M13.3683444,11.8969094 C12.3852808,12.3336527 11.4384819,12.7543507 10.4169358,13.2081828 C10.4169358,12.7004753 10.4044127,12.3271302 10.4169358,11.8969094 C10.4187621,11.8307718 10.6226539,11.6236188 10.6477001,11.6041819 C11.6153708,10.8546219 12.45768,11.4010728 13.3683444,11.8969094 Z M10.6130137,8.29908691 C11.6306464,8.73361252 12.6383649,9.19083627 13.6526059,9.63344972 C13.8254508,9.70871879 13.9000676,9.80942542 13.8935452,10.0027508 C13.8806307,10.3908366 13.8897621,10.7795746 13.8897621,11.2472343 C13.1712491,10.9312868 12.5278746,10.6493865 11.8852828,10.3655295 C11.4885874,10.1903365 11.0875872,10.0236227 10.699371,9.83094951 C10.4850433,9.72463357 10.3064586,9.72672076 10.0875652,9.82729693 C9.15146313,10.2576482 8.20701238,10.6694757 7.2649097,11.0866516 C7.1672034,11.1299606 7.06545318,11.1637469 6.90395732,11.2255798 C6.90395732,10.7307867 6.89573903,10.2719976 6.913741,9.81451293 C6.91621953,9.75268011 7.04197236,9.67715014 7.12506838,9.63997217 C8.13500453,9.18783594 9.14520158,8.73583016 10.1628342,8.30156544 C10.2918483,8.24651596 10.4845215,8.24429833 10.6130137,8.29908691 Z M10.5762532,5.5385904 C11.611366,5.98890035 12.6411304,6.45108115 13.6699817,6.91574049 C13.7509905,6.95239666 13.871134,7.03040516 13.8736126,7.09315113 C13.8912232,7.54306973 13.8830049,7.99416237 13.8830049,8.50226122 C13.3078552,8.24932061 12.7949298,8.02481788 12.282787,7.79835842 C11.7269438,7.55233161 11.1761881,7.29365124 10.6130398,7.06549594 C10.4818081,7.01227275 10.2897872,7.01253365 10.15986,7.06797447 C9.17170882,7.49062923 8.19203683,7.93311224 7.20949497,8.36894234 C7.13135602,8.40364178 7.05178213,8.43481909 6.89589557,8.49965224 C6.89589557,7.99859763 6.88780774,7.55715822 6.90450521,7.1167624 C6.90698374,7.04997251 7.01264743,6.96204989 7.09013413,6.9269591 C8.12824727,6.45656001 9.16805625,5.98994394 10.2130832,5.53545963 C10.315877,5.49071562 10.4725462,5.4935855 10.5762532,5.5385904 Z" id="document" fill="#FFFFFF"></path>
            </g>
        </g>
    </g>
</svg>