<?xml version="1.0" encoding="UTF-8"?>
<svg width="65px" height="64px" viewBox="0 0 65 64" version="1.1" xmlns="http://www.w3.org/2000/svg" xmlns:xlink="http://www.w3.org/1999/xlink">
    <title>shortenURLs </title>
    <g id="functions-icons" stroke="none" stroke-width="1" fill="none" fill-rule="evenodd">
        <g id="shortenURLs-">
            <path d="M52.7634511,-1.0658141e-14 C55.9684885,-1.0658141e-14 61.4087089,2.93353705 61.4087089,10.3218922 L61.4096679,37.4618808 C58.7410672,34.2588916 54.5123267,32.4840336 49.3880519,32.4840336 C40.4772392,32.4840336 33.2535982,39.7076746 33.2535982,48.6184874 C33.2535982,49.8829808 33.3609966,50.9172487 33.5707758,51.7611682 L9.62329842,51.7606315 C4.08796332,51.5821177 2.20268248e-13,47.6536867 2.20268248e-13,41.4387394 L2.20268248e-13,10.3218922 C2.20268248e-13,3.91138273 4.73407,-1.0658141e-14 9.62329842,-1.0658141e-14 L52.7634511,-1.0658141e-14 Z" id="Combined-Shape" fill="#EE6122" fill-rule="nonzero"></path>
            <circle id="Oval" fill="#E4E5E6" cx="49.8339713" cy="49.2086661" r="14.6676853"></circle>
            <path d="M50.29125,56.195 C49.2825,56.2115 48.5475,55.8875 48.50175,55.00625 C48.483,54.67625 48.48825,54.32375 48.50325,54.11225 C48.606,52.82525 49.503,51.89975 50.40075,51.71975 C51.51225,51.49925 52.242,52.00475 52.242,53.45225 C52.242,54.4295 51.972,56.16575 50.2995,56.195 L50.2875,56.195 L50.29125,56.195 Z M49.44225,40.25 C44.49,40.25 40.5,44.22275 40.5,49.418 C40.5,52.1135 41.94,54.7145 43.96725,56.27825 C44.35725,56.57825 44.82075,56.5535 45.09,56.29325 C45.31275,56.0795 45.294,55.55525 44.87625,55.187 C43.25625,53.7725 42.13725,51.617 42.13725,49.46075 C42.13725,45.59825 45.57225,42.34325 49.44225,42.34325 C54.15225,42.34325 56.66925,46.16975 56.66925,49.41575 C56.66925,51.40325 55.70175,53.79575 53.94975,55.32125 C53.961,55.32125 54.3195,54.61475 54.3195,53.23325 C54.3195,50.88575 52.8375,49.60625 51.1095,49.60625 C49.86225,49.60625 49.10925,50.05475 48.6045,50.47025 C48.6045,49.51625 48.63825,47.73125 48.63825,47.73125 C48.63825,46.55225 48.23325,45.60875 46.78575,45.58625 C45.95325,45.575 45.33675,45.956 44.95575,46.8215 C44.82075,47.1485 44.86575,47.5085 45.14625,47.66525 C45.37125,47.80025 45.75375,47.69975 45.93075,47.45225 C46.0545,47.29475 46.12125,47.26175 46.23375,47.27225 C46.41375,47.29475 46.4265,47.576 46.4265,47.76725 C46.437,47.912 46.57125,49.9445 46.4925,55.166 C46.485,56.5985 47.61975,58.25 50.325,58.25 C51.495,58.25 52.392,57.92375 53.69475,57.1835 C55.68225,56.06 58.5,53.5685 58.5,49.346 C58.46475,44.03375 54.19875,40.25 49.44975,40.25" id="Shape" fill="#EE6122" fill-rule="nonzero"></path>
            <path d="M9.61328125,23.0478516 L18.7460938,19.2539062 L18.7460938,17.6953125 L9.61328125,13.9013672 L9.61328125,15.8632812 L16.0048828,18.4746094 L9.61328125,21.0859375 L9.61328125,23.0478516 Z M23.8867188,23.2119141 C24.4108073,23.2119141 24.8619792,23.1219076 25.2402344,22.9418945 C25.6184896,22.7618815 26.0354818,22.4986979 26.4912109,22.1523438 L26.4912109,22.1523438 L26.4912109,23 L28.9521484,23 L28.9521484,15.3232422 L26.4912109,15.3232422 L26.4912109,20.7646484 C26.2542318,20.9150391 26.008138,21.0289714 25.7529297,21.1064453 C25.4977214,21.1839193 25.2652995,21.2226562 25.0556641,21.2226562 C24.7412109,21.2226562 24.4962565,21.1839193 24.3208008,21.1064453 C24.1453451,21.0289714 24.0143229,20.9059245 23.9277344,20.7373047 C23.8365885,20.5686849 23.7784831,20.3556315 23.753418,20.0981445 C23.7283529,19.8406576 23.7158203,19.5182292 23.7158203,19.1308594 L23.7158203,19.1308594 L23.7158203,15.3232422 L21.2412109,15.3232422 L21.2412109,20.3203125 C21.2412109,21.2727865 21.4702148,21.9928385 21.9282227,22.4804688 C22.3862305,22.968099 23.0390625,23.2119141 23.8867188,23.2119141 Z M33.7373047,23 L33.7373047,17.859375 C34.0472005,17.75 34.3365885,17.672526 34.6054688,17.6269531 C34.874349,17.5813802 35.1842448,17.5585938 35.5351562,17.5585938 C35.6901042,17.5585938 35.8837891,17.5677083 36.1162109,17.5859375 C36.3486328,17.6041667 36.5172526,17.6315104 36.6220703,17.6679688 L36.6220703,17.6679688 L36.8408203,17.6679688 L36.8408203,15.3232422 C36.7587891,15.3141276 36.6630859,15.3072917 36.5537109,15.3027344 C36.4443359,15.2981771 36.3463542,15.2958984 36.2597656,15.2958984 C35.922526,15.2958984 35.5533854,15.3722331 35.1523438,15.5249023 C34.7513021,15.6775716 34.2796224,15.9863281 33.7373047,16.4511719 L33.7373047,16.4511719 L33.7373047,15.3232422 L31.2763672,15.3232422 L31.2763672,23 L33.7373047,23 Z M40.6962891,23 L40.6962891,12.3632812 L38.2353516,12.3632812 L38.2353516,23 L40.6962891,23 Z M52.3857422,23.0478516 L52.3857422,21.0859375 L45.9941406,18.4814453 L52.3857422,15.8632812 L52.3857422,13.9013672 L43.2529297,17.6953125 L43.2529297,19.2539062 L52.3857422,23.0478516 Z" id="&gt;url&lt;" fill="#FFFFFF" fill-rule="nonzero"></path>
        </g>
    </g>
</svg>