<?xml version="1.0" encoding="UTF-8"?>
<svg width="65px" height="64px" viewBox="0 0 65 64" version="1.1" xmlns="http://www.w3.org/2000/svg" xmlns:xlink="http://www.w3.org/1999/xlink">
    <title>sendMessagesWithMessageBird</title>
    <defs>
        <linearGradient x1="63.3526168%" y1="63.3545175%" x2="32.7570459%" y2="32.7618662%" id="linearGradient-1">
            <stop stop-color="#FFFFFF" stop-opacity="0" offset="0%"></stop>
            <stop stop-color="#FFFFFF" offset="100%"></stop>
        </linearGradient>
        <linearGradient x1="31.7325858%" y1="41.9165987%" x2="95.3504641%" y2="105.534737%" id="linearGradient-2">
            <stop stop-color="#FFFFFF" offset="0%"></stop>
            <stop stop-color="#CDD7DC" offset="100%"></stop>
        </linearGradient>
        <linearGradient x1="76.7637441%" y1="76.7718597%" x2="-26.2028566%" y2="-26.1947411%" id="linearGradient-3">
            <stop stop-color="#653866" stop-opacity="0" offset="0%"></stop>
            <stop stop-color="#653866" offset="100%"></stop>
        </linearGradient>
    </defs>
    <g id="functions-icons" stroke="none" stroke-width="1" fill="none" fill-rule="evenodd">
        <g id="sendMessagesWithMessageBird">
            <path d="M52.7634511,-1.0658141e-14 C55.9684885,-1.0658141e-14 61.4087089,2.93353705 61.4087089,10.3218922 L61.4096679,37.4618808 C58.7410672,34.2588916 54.5123267,32.4840336 49.3880519,32.4840336 C40.4772392,32.4840336 33.2535982,39.7076746 33.2535982,48.6184874 C33.2535982,49.8829808 33.3609966,50.9172487 33.5707758,51.7611682 L9.62329842,51.7606315 C4.08796332,51.5821177 2.20268248e-13,47.6536867 2.20268248e-13,41.4387394 L2.20268248e-13,10.3218922 C2.20268248e-13,3.91138273 4.73407,-1.0658141e-14 9.62329842,-1.0658141e-14 L52.7634511,-1.0658141e-14 Z" id="Combined-Shape" fill="#2481D7" fill-rule="nonzero"></path>
            <circle id="Oval" fill="#CFE2FF" cx="49.8339713" cy="49.2086661" r="14.6676853"></circle>
            <path d="M52.2173913,42 C53.4021739,42 54.3586957,42.9565217 54.3586957,44.1413043 C54.3586957,44.5869565 54.2282609,45 54,45.3369565 L54,45.3369565 L51.7717391,48.673913 C51.7173913,48.75 51.6847826,48.8586957 51.6847826,48.9673913 C51.6847826,49.2608696 51.923913,49.5 52.2173913,49.5 C52.3913043,49.5 52.5543478,49.4130435 52.6521739,49.2717391 L52.6521739,49.2717391 L55.2934783,45.576087 C55.6847826,45.0326087 56.326087,44.673913 57.0434783,44.673913 C57.826087,44.673913 58.5108696,45.0869565 58.8804348,45.7065217 C57.9456522,46.5 57.2282609,47.5434783 56.8369565,48.7282609 L56.8369565,48.7282609 L55.6304348,52.3913043 C54.75,55.0652174 52.2282609,57 49.2608696,57 L49.2608696,57 L42.7717391,57 L46.3586957,51.6413043 L49.0108696,51.6413043 C49.3043478,51.6413043 49.5434783,51.4021739 49.5434783,51.1086957 C49.5434783,50.8152174 49.3043478,50.576087 49.0108696,50.576087 L49.0108696,50.576087 L46.3695652,50.576087 C44.6086957,50.576087 43.0543478,49.7391304 42.076087,48.4347826 L42.076087,48.4347826 L47.3804348,48.4347826 C47.9782609,48.4347826 48.4565217,47.9456522 48.4565217,47.3586957 L48.4565217,47.3586957 L41.4456522,47.3586957 C41.1630435,46.7065217 41,45.9782609 41,45.2173913 L41,45.2173913 L49.5326087,45.2173913 C50.1304348,45.2173913 50.6086957,44.7282609 50.6086957,44.1413043 L50.6086957,44.1413043 L41,44.1413043 L41,42 Z M57.0434783,45.3369565 C56.826087,45.3369565 56.6413043,45.5217391 56.6413043,45.7391304 C56.6413043,45.9565217 56.826087,46.1413043 57.0434783,46.1413043 C57.2608696,46.1413043 57.4456522,45.9673913 57.4456522,45.7391304 C57.4456522,45.5217391 57.2608696,45.3369565 57.0434783,45.3369565 Z" id="Combined-Shape" fill="#2481D7" fill-rule="nonzero"></path>
            <g id="chat-(3)" transform="translate(9.000000, 9.000000)" fill-rule="nonzero">
                <path d="M18.0497121,3.37826515 C23.0074091,3.30253788 27.0538333,7.20456061 27.1498182,12.1618864 C27.1639242,12.8897273 27.0911667,13.5981591 26.941303,14.2776894 C26.6875,15.4282879 26.5366288,16.5991439 26.5366288,17.7774242 L26.5366288,20.0549697 C26.5366288,20.4039091 26.2537652,20.6867727 25.9048258,20.6867727 L23.6272803,20.6867727 C22.449,20.6867727 21.2781439,20.8376439 20.1275455,21.091447 C19.4480682,21.2413106 18.7396364,21.3140682 18.0117955,21.2999621 C13.0545227,21.2040303 9.1525,17.1577121 9.22812121,12.2001212 C9.30188636,7.36110606 13.21075,3.45218939 18.0497121,3.37826515 Z" id="Path" fill-opacity="0.799155069" fill="#FFFFFF" opacity="0.599696568"></path>
                <path d="M18.0497121,3.37826515 C23.0074091,3.30253788 27.0538333,7.20456061 27.1498182,12.1618864 C27.1639242,12.8897273 27.0911667,13.5981591 26.941303,14.2776894 C26.6875,15.4282879 26.5366288,16.5991439 26.5366288,17.7774242 L26.5366288,20.0549697 C26.5366288,20.4039091 26.2537652,20.6867727 25.9048258,20.6867727 L23.6272803,20.6867727 C22.449,20.6867727 21.2781439,20.8376439 20.1275455,21.091447 C19.4480682,21.2413106 18.7396364,21.3140682 18.0117955,21.2999621 C13.0545227,21.2040303 9.1525,17.1577121 9.22812121,12.2001212 C9.30188636,7.36110606 13.21075,3.45218939 18.0497121,3.37826515 Z" id="Path" fill="url(#linearGradient-1)" opacity="0.599696568"></path>
                <path d="M11.0885303,0.0482045455 C5.04869697,-0.0440681818 0.11905303,4.70962121 0.00206818182,10.7490303 C-0.0150606061,11.6356439 0.0735530303,12.4988182 0.256189394,13.3266212 C0.565356061,14.7283182 0.749159091,16.1547803 0.749159091,17.5902576 L0.749159091,20.3649091 C0.749159091,20.79 1.09375,21.1346439 1.51889394,21.1346439 L4.29354545,21.1346439 C5.7289697,21.1346439 7.15543182,21.318447 8.55718182,21.6276136 C9.38498485,21.810197 10.2481061,21.8988636 11.1347197,21.8816818 C17.1740227,21.76475 21.9277121,16.8352652 21.8356515,10.7955379 C21.7457121,4.90031818 16.983697,0.13819697 11.0885303,0.0482045455 Z" id="Path" fill="url(#linearGradient-2)"></path>
                <path d="M7.01023485,10.3800985 C6.70181061,10.0523712 6.26526515,9.84656061 5.77961364,9.84656061 C4.84559091,9.84656061 4.08842424,10.6037273 4.08842424,11.53775 C4.08842424,12.0233485 4.29418182,12.4598939 4.62196212,12.7683712 L8.27012879,16.4165379 C8.57860606,16.7442652 9.01515152,16.9500758 9.50075,16.9500758 C10.4347727,16.9500758 11.1919394,16.1929091 11.1919394,15.2588864 C11.1919394,14.7732879 10.9861288,14.3367424 10.6584015,14.0282652 L7.01023485,10.3800985 Z" id="Path" fill-opacity="0.4" fill="url(#linearGradient-3)"></path>
                <circle id="Oval" fill="#2481D7" cx="5.77956061" cy="11.5375379" r="1.69118939"></circle>
                <path d="M11.7930379,10.3800985 C11.4846136,10.0523712 11.0480682,9.84656061 10.5624167,9.84656061 C9.62839394,9.84656061 8.87122727,10.6037273 8.87122727,11.53775 C8.87122727,12.0233485 9.07698485,12.4598939 9.40476515,12.7683712 L13.0529318,16.4165379 C13.3614091,16.7442652 13.7979545,16.9500758 14.283553,16.9500758 C15.2175758,16.9500758 15.9747424,16.1929091 15.9747424,15.2588864 C15.9747424,14.7732879 15.7689318,14.3367424 15.4412045,14.0282652 L11.7930379,10.3800985 Z" id="Path" fill-opacity="0.4" fill="url(#linearGradient-3)"></path>
                <circle id="Oval" fill="#2481D7" cx="10.5624697" cy="11.5375379" r="1.69118939"></circle>
                <path d="M16.5757879,10.3800985 C16.2673636,10.0523712 15.8308182,9.84656061 15.3451667,9.84656061 C14.4111439,9.84656061 13.6539773,10.6037273 13.6539773,11.53775 C13.6539773,12.0233485 13.8597879,12.4598939 14.1875152,12.7683712 L17.8356818,16.4165379 C18.1441591,16.7442652 18.5807045,16.9500758 19.066303,16.9500758 C20.0003258,16.9500758 20.7574924,16.1929091 20.7574924,15.2588864 C20.7574924,14.7732879 20.5516818,14.3367424 20.2239545,14.0282652 L16.5757879,10.3800985 Z" id="Path" fill-opacity="0.4" fill="url(#linearGradient-3)"></path>
                <circle id="Oval" fill="#2481D7" cx="15.3454318" cy="11.5375379" r="1.69118939"></circle>
            </g>
        </g>
    </g>
</svg>